<svg width="32" height="32" viewBox="0 0 32 32" fill="none" xmlns="http://www.w3.org/2000/svg">
<path fill-rule="evenodd" clip-rule="evenodd" d="M8 22.4H24C28.4183 22.4 32 25.9817 32 30.4C32 31.2837 31.2837 32 30.4 32C29.5795 32 28.9032 31.3824 28.8108 30.5866L28.7919 30.118C28.6513 27.6916 26.7084 25.7488 24.282 25.6082L24 25.6H8C5.34903 25.6 3.2 27.7491 3.2 30.4C3.2 31.2837 2.48366 32 1.6 32C0.716344 32 0 31.2837 0 30.4C0 26.098 3.39569 22.5891 7.65298 22.4074L8 22.4H24H8ZM16 0C21.3019 0 25.6 4.29807 25.6 9.6C25.6 14.9019 21.3019 19.2 16 19.2C10.6981 19.2 6.4 14.9019 6.4 9.6C6.4 4.29807 10.6981 0 16 0ZM16 3.19999C12.4654 3.19999 9.6 6.06536 9.6 9.59999C9.6 13.1346 12.4654 16 16 16C19.5346 16 22.4 13.1346 22.4 9.59999C22.4 6.06536 19.5346 3.19999 16 3.19999Z" fill="white"/>
</svg>
