<svg width="40" height="40" viewBox="0 0 40 40" fill="none" xmlns="http://www.w3.org/2000/svg">
<path fill-rule="evenodd" clip-rule="evenodd" d="M18.3334 3.33325C21.0948 3.33325 23.3334 5.57183 23.3334 8.33325L23.3335 10.2844C23.8548 10.1002 24.4157 9.99992 25 9.99992H31.6667C34.4281 9.99992 36.6667 12.2385 36.6667 14.9999V31.6666C36.6667 34.428 34.4281 36.6666 31.6667 36.6666H8.33337C5.57195 36.6666 3.33337 34.428 3.33337 31.6666V8.33325C3.33337 5.57183 5.57195 3.33325 8.33337 3.33325H18.3334ZM18.3334 6.66659H8.33337C7.4129 6.66659 6.66671 7.41278 6.66671 8.33325V31.6666C6.66671 32.5871 7.4129 33.3333 8.33337 33.3333H20V8.33325C20 7.41278 19.2538 6.66659 18.3334 6.66659ZM31.6667 13.3333H25C24.0796 13.3333 23.3334 14.0794 23.3334 14.9999V33.3333H31.6667C32.5872 33.3333 33.3334 32.5871 33.3334 31.6666V14.9999C33.3334 14.0794 32.5872 13.3333 31.6667 13.3333ZM15 23.3333C15.9205 23.3333 16.6667 24.0794 16.6667 24.9999C16.6667 25.9204 15.9205 26.6666 15 26.6666H11.6667C10.7462 26.6666 10 25.9204 10 24.9999C10 24.0794 10.7462 23.3333 11.6667 23.3333H15ZM30 23.3333C30.9205 23.3333 31.6667 24.0794 31.6667 24.9999C31.6667 25.9204 30.9205 26.6666 30 26.6666H26.6667C25.7462 26.6666 25 25.9204 25 24.9999C25 24.0794 25.7462 23.3333 26.6667 23.3333H30ZM15 16.6666C15.9205 16.6666 16.6667 17.4128 16.6667 18.3333C16.6667 19.2537 15.9205 19.9999 15 19.9999H11.6667C10.7462 19.9999 10 19.2537 10 18.3333C10 17.4128 10.7462 16.6666 11.6667 16.6666H15ZM30 16.6666C30.9205 16.6666 31.6667 17.4128 31.6667 18.3333C31.6667 19.2537 30.9205 19.9999 30 19.9999H26.6667C25.7462 19.9999 25 19.2537 25 18.3333C25 17.4128 25.7462 16.6666 26.6667 16.6666H30ZM15 9.99992C15.9205 9.99992 16.6667 10.7461 16.6667 11.6666C16.6667 12.5871 15.9205 13.3333 15 13.3333H11.6667C10.7462 13.3333 10 12.5871 10 11.6666C10 10.7461 10.7462 9.99992 11.6667 9.99992H15Z" fill="white"/>
</svg>
