<svg width="500" height="500" viewBox="0 0 500 500" fill="none" xmlns="http://www.w3.org/2000/svg">
<path d="M437.65 206.43C419.46 186.31 388.98 184.06 365.28 170.87C324.49 148.18 308.67 96.4801 271.57 68.1601C248.13 50.2801 216.47 43.3501 188.16 47.2701C147.97 52.8301 110.16 79.7701 98.8 119.27C95.542 130.772 94.3769 142.766 95.36 154.68C97.18 178.23 102.25 202.09 97.47 225.22C92.2 250.71 75.61 272.22 65.7 296.3C53.37 326.3 51.7 359.91 56.94 391.88C60.54 413.7 67.72 435.73 82.7 451.99C83.83 453.22 85.01 454.4 86.22 455.54H249.83C260.09 442.45 267.83 426.96 276.9 413.22C299.62 378.63 336 353.97 375.73 342.41C393.53 337.23 412.81 334.14 427.11 322.35C441.83 310.21 448.59 290.85 451.51 272.01C455.06 249.14 453.14 223.56 437.65 206.43Z" fill="#04D361"/>
<path opacity="0.7" d="M437.65 206.43C419.46 186.31 388.98 184.06 365.28 170.87C324.49 148.18 308.67 96.4801 271.57 68.1601C248.13 50.2801 216.47 43.3501 188.16 47.2701C147.97 52.8301 110.16 79.7701 98.8 119.27C95.542 130.772 94.3769 142.766 95.36 154.68C97.18 178.23 102.25 202.09 97.47 225.22C92.2 250.71 75.61 272.22 65.7 296.3C53.37 326.3 51.7 359.91 56.94 391.88C60.54 413.7 67.72 435.73 82.7 451.99C83.83 453.22 85.01 454.4 86.22 455.54H249.83C260.09 442.45 267.83 426.96 276.9 413.22C299.62 378.63 336 353.97 375.73 342.41C393.53 337.23 412.81 334.14 427.11 322.35C441.83 310.21 448.59 290.85 451.51 272.01C455.06 249.14 453.14 223.56 437.65 206.43Z" fill="white"/>
<path d="M356.3 344.25C356.3 344.25 359.58 358.39 359.3 361.46C359.02 364.53 361.3 369.58 364.35 370.34C367.4 371.1 376.35 370.18 378.35 367.23C382.14 361.5 378.86 346.4 378.35 341.06C377.84 335.72 356.3 344.25 356.3 344.25Z" fill="#04D361" stroke="#263238" stroke-linecap="round" stroke-linejoin="round"/>
<path d="M376.23 350.5C376.23 350.5 377.35 363.79 375.47 366.93" stroke="#263238" stroke-linecap="round" stroke-linejoin="round"/>
<path d="M362.19 352.69C362.19 352.69 362.99 366.3 365.14 368.07Z" fill="#04D361"/>
<path d="M362.19 352.69C362.19 352.69 362.99 366.3 365.14 368.07" stroke="#263238" stroke-linecap="round" stroke-linejoin="round"/>
<path d="M360.34 355C360.34 355 373.83 352.45 375.73 352.45C377.63 352.45 377.87 353.12 378 355C378.13 356.88 364.51 357.25 362.74 358.26C360.97 359.27 362.61 361.55 362.61 362.18C362.61 362.81 375.47 362.43 376.74 361.42C378.01 360.41 377.62 363.7 377.12 364.58C376.62 365.46 364.6 366.73 362.19 366.22" fill="#04D361"/>
<path d="M360.34 355C360.34 355 373.83 352.45 375.73 352.45C377.63 352.45 377.87 353.12 378 355C378.13 356.88 364.51 357.25 362.74 358.26C360.97 359.27 362.61 361.55 362.61 362.18C362.61 362.81 375.47 362.43 376.74 361.42C378.01 360.41 377.62 363.7 377.12 364.58C376.62 365.46 364.6 366.73 362.19 366.22" stroke="#263238" stroke-linecap="round" stroke-linejoin="round"/>
<path d="M320.66 436.91C320.66 436.91 321.16 440.45 319.14 442.81C317.12 445.17 307.27 447.42 306.77 449.32C306.496 451.123 306.496 452.957 306.77 454.76H336.48C336.48 454.76 337.99 451.7 337.48 443.76C336.97 435.82 320.66 436.91 320.66 436.91Z" fill="#04D361" stroke="#263238" stroke-linecap="round" stroke-linejoin="round"/>
<path d="M322.2 267.19L319.7 276.99C319.7 276.99 319.56 333.78 319.03 340.12C318.372 346.223 318.796 352.394 320.28 358.35C321.92 364.66 318.65 378.19 320.28 381.28C321.91 384.37 321.17 421.51 319.28 426.28C317.39 431.05 319.49 438.6 319.49 438.6L337.49 443.77C337.49 443.77 340.49 432.39 339.38 429.62C338.27 426.85 340.65 427.09 339.64 417.12C338.63 407.15 347.72 320.64 348.48 321.99C349.24 323.34 354.48 340.43 354.48 341.21C354.48 341.99 352.41 343.99 353.17 344.88C353.93 345.77 353.04 349.56 356.83 351.45C361.77 353.91 370.3 352.31 373.33 350.53C376.36 348.75 381.8 346.66 381.73 343.99C381.66 341.32 381.73 338.72 379.85 338.44C379.85 338.44 380.34 327.08 378.85 321.99C377.36 316.9 374.3 301.58 374.3 296.35C374.3 291.12 369.44 263.87 369.44 263.87L322.2 267.19Z" fill="#263238"/>
<path d="M358.34 307C356.06 308.89 343.55 318.3 340.52 325.53" stroke="white" stroke-linecap="round" stroke-linejoin="round"/>
<path d="M345.08 294.72C345.6 298.38 345.92 302.07 346.3 305.72" stroke="white" stroke-linecap="round" stroke-linejoin="round"/>
<path d="M343.81 285.42C343.96 286.95 344.19 288.48 344.41 290" stroke="white" stroke-linecap="round" stroke-linejoin="round"/>
<path d="M365.14 280.11C365.14 280.11 367.56 287.82 371.36 290.48" stroke="white" stroke-linecap="round" stroke-linejoin="round"/>
<path d="M324.47 280.74C324.47 280.74 324.98 289.84 321.56 294.27" stroke="white" stroke-linecap="round" stroke-linejoin="round"/>
<path d="M360.34 316.31C357.96 316.63 351.64 316.76 348.61 319.79" stroke="white" stroke-linecap="round" stroke-linejoin="round"/>
<path d="M330.54 353.1C329.46 354.3 327.13 357.44 325.23 356.95" stroke="white" stroke-linecap="round" stroke-linejoin="round"/>
<path d="M343.81 335.72C340.682 340.526 337.269 345.141 333.59 349.54" stroke="white" stroke-linecap="round" stroke-linejoin="round"/>
<path d="M324.47 387C324.98 388.65 331.42 406.5 333.57 407.49" stroke="white" stroke-linecap="round" stroke-linejoin="round"/>
<path d="M331.06 431.62C332.443 432.423 333.872 433.145 335.34 433.78" stroke="white" stroke-linecap="round" stroke-linejoin="round"/>
<path d="M322.58 426.71L326.58 429.05" stroke="white" stroke-linecap="round" stroke-linejoin="round"/>
<path d="M356.3 341.57C356.3 341.57 369 343.72 376.56 338.79" stroke="white" stroke-linecap="round" stroke-linejoin="round"/>
<path d="M369.17 343.22C369.17 343.22 366.17 350.71 361.25 350.5" stroke="white" stroke-linecap="round" stroke-linejoin="round"/>
<path d="M378 340.42C378.564 341.604 378.672 342.954 378.303 344.212C377.934 345.47 377.114 346.548 376 347.24" stroke="white" stroke-linecap="round" stroke-linejoin="round"/>
<path d="M381 187.61C380.5 188.52 377.64 191.35 374 194.72C366.63 201.59 356.15 210.72 356.15 210.72L359.71 223.54C362.56 233.79 366.11 246.54 366.26 246.97C366.51 247.73 371.16 267.48 371.16 267.48V272.02C363.909 277.967 355.388 282.165 346.254 284.291C337.121 286.417 327.621 286.413 318.49 284.28C318.49 284.28 318.96 273.28 318.21 272.98C317.46 272.68 318.21 267.98 315.59 262.87C314.02 259.87 309.77 250.72 306.64 243.99L306.08 242.79L305.41 241.35L304.41 239.25L304.09 238.56L303.95 238.24L303.01 236.24L302.79 236.5C301.2 238.38 291.36 249.99 285.89 256.29C283.95 258.53 282.57 260.1 282.29 260.29C281.17 261.22 254.08 276.97 254.08 276.97C254.08 276.97 249.28 268.47 249.96 267.17C250.64 265.87 271.27 250.01 273.71 247.61C276.15 245.21 283.15 233 283.15 233C283.15 233 294.52 213.37 295.53 212.61C296.54 211.85 312.98 202.25 314.68 202.25C314.68 202.25 334.45 194.67 337.23 193.9C340.01 193.13 366.56 177.44 366.56 177.44C366.56 177.44 369.56 158.52 369.84 156.5C370.12 154.48 370.45 146.83 372.84 144.21C373.223 143.807 373.486 143.305 373.6 142.76L373.87 139.63C381.34 136.4 385.39 139.72 385.39 139.72V143.11C385.429 143.569 385.544 144.018 385.73 144.44C386.76 146 382.47 184.83 381 187.61Z" fill="#BFBFBF"/>
<path opacity="0.2" d="M298 227.56C299.362 230.648 300.953 233.629 302.76 236.48C301.17 238.36 291.33 249.97 285.86 256.27C287.97 249.37 292.81 243.85 294.24 242.18C296.01 240.1 293.99 239.71 292.48 236.18C290.97 232.65 297.77 236.64 297.27 233.86C296.77 231.08 297.1 225.38 298 227.56Z" fill="black" fill-opacity="0.7"/>
<path opacity="0.2" d="M374 194.73C366.63 201.6 356.15 210.73 356.15 210.73L359.71 223.55C354.36 219.86 350.87 207.55 351.94 207.17C359.66 204.42 373.85 194.82 374 194.68V194.73Z" fill="black" fill-opacity="0.7"/>
<path d="M381 187.61C380.5 188.52 377.64 191.35 374 194.72C366.63 201.59 356.15 210.72 356.15 210.72L359.71 223.54C362.56 233.79 366.11 246.54 366.26 246.97C366.51 247.73 371.16 267.48 371.16 267.48V272.02C363.909 277.967 355.388 282.165 346.254 284.291C337.121 286.417 327.621 286.413 318.49 284.28C318.49 284.28 318.96 273.28 318.21 272.98C317.46 272.68 318.21 267.98 315.59 262.87C314.02 259.87 309.77 250.72 306.64 243.99L306.08 242.79L305.41 241.35L304.41 239.25L304.09 238.56L303.95 238.24L303.01 236.24L302.79 236.5C301.2 238.38 291.36 249.99 285.89 256.29C283.95 258.53 282.57 260.1 282.29 260.29C281.17 261.22 254.08 276.97 254.08 276.97C254.08 276.97 249.28 268.47 249.96 267.17C250.64 265.87 271.27 250.01 273.71 247.61C276.15 245.21 283.15 233 283.15 233C283.15 233 294.52 213.37 295.53 212.61C296.54 211.85 312.98 202.25 314.68 202.25C314.68 202.25 334.45 194.67 337.23 193.9C340.01 193.13 366.56 177.44 366.56 177.44C366.56 177.44 369.56 158.52 369.84 156.5C370.12 154.48 370.45 146.83 372.84 144.21C373.223 143.807 373.486 143.305 373.6 142.76L373.87 139.63C381.34 136.4 385.39 139.72 385.39 139.72V143.11C385.429 143.569 385.544 144.018 385.73 144.44C386.76 146 382.47 184.83 381 187.61Z" stroke="#263238" stroke-linecap="round" stroke-linejoin="round"/>
<path d="M388.28 116.59C387.859 116.138 387.3 115.839 386.69 115.74C385.552 116.191 384.488 116.808 383.53 117.57C381.2 119.17 378.47 121.27 378.47 121.27L383.78 132.27C384.639 132.339 385.503 132.218 386.31 131.916C387.117 131.613 387.848 131.137 388.45 130.52V130.52C389.244 129.763 389.918 128.89 390.45 127.93L388.28 116.59Z" fill="white" stroke="#263238" stroke-linecap="round" stroke-linejoin="round"/>
<path d="M385.64 69.05C385.046 69.2706 384.563 69.7172 384.297 70.2923C384.031 70.8675 384.004 71.5245 384.22 72.12C387.85 81.97 391.01 90.58 393.76 98.12L377.6 104.89C374.13 97.63 370.21 89.33 365.74 79.89C365.44 79.3734 364.958 78.9873 364.389 78.8071C363.819 78.6269 363.203 78.6656 362.66 78.9156C362.118 79.1656 361.688 79.609 361.455 80.1591C361.222 80.7091 361.202 81.3263 361.4 81.89C381.23 123.94 390.31 142.89 397.63 151.67C403.26 158.4 441.01 244.5 453.94 274.38C454.187 274.961 454.654 275.42 455.239 275.656C455.824 275.892 456.479 275.886 457.06 275.64V275.64C457.535 275.437 457.931 275.087 458.19 274.64C458.694 274.788 459.234 274.76 459.72 274.56V274.56C460.3 274.315 460.761 273.851 461.002 273.269C461.243 272.687 461.246 272.034 461.01 271.45C448.77 241.28 413.85 153.99 413.01 145.26C411.89 133.89 404.74 114.13 388.66 70.5C388.449 69.9091 388.014 69.4252 387.448 69.1537C386.883 68.8821 386.233 68.8449 385.64 69.05V69.05ZM395.39 102.66C403 123.8 406.94 136 408.07 144L400.22 147.29C395.38 140.94 389.41 129.54 379.68 109.29L395.39 102.66ZM433.85 216.47C422.03 189.97 408.67 160.78 403.05 151.25L408.94 148.78C411.8 159.47 423.25 189.46 433.85 216.47V216.47Z" fill="#04D361" stroke="#263238" stroke-linecap="round" stroke-linejoin="round"/>
<path d="M359.63 82.5401C359.63 82.5401 362.63 75.7901 372.92 71.4901C383.21 67.1901 390.4 69.6401 390.4 69.6401" stroke="#263238" stroke-width="7" stroke-linecap="round" stroke-linejoin="round"/>
<path d="M454.276 274.744L461.101 271.883L474.553 303.978C474.705 304.34 474.707 304.748 474.558 305.111C474.409 305.474 474.122 305.763 473.76 305.915L469.665 307.631C469.303 307.783 468.896 307.785 468.533 307.636C468.169 307.487 467.88 307.201 467.728 306.839L454.276 274.744V274.744Z" fill="#263238"/>
<path d="M390.43 121.17C390.43 121.17 391.74 121.29 391.36 124.51C391.699 125.393 391.734 126.364 391.46 127.27C391.26 127.8 389.94 129.04 387.64 129.05C387.11 129.05 387.14 127.68 387.37 127.64C387.14 127.64 386.26 127.73 385.95 127.02C385.64 126.31 386.59 124.02 386.67 123.85C386.546 123.948 386.401 124.017 386.246 124.052C386.091 124.087 385.931 124.086 385.776 124.051C385.622 124.015 385.477 123.945 385.353 123.847C385.229 123.748 385.129 123.623 385.06 123.48C384.45 122.39 385.4 120.9 385.4 120.9C385.189 120.956 384.969 120.966 384.754 120.93C384.538 120.895 384.333 120.814 384.152 120.693C383.97 120.572 383.816 120.413 383.701 120.228C383.585 120.044 383.51 119.836 383.48 119.62C383.359 118.942 383.359 118.248 383.48 117.57C384.438 116.808 385.502 116.191 386.64 115.74C387.302 115.75 387.953 115.915 388.54 116.22C388.767 116.92 388.944 117.635 389.07 118.36C390.61 118.29 391.05 119.85 390.43 121.17Z" fill="white" stroke="#263238" stroke-linecap="round" stroke-linejoin="round"/>
<path d="M383.76 126C384.54 123.84 382.68 121 382.51 120.7C382.34 120.4 384.08 119.19 384.08 119.19C384.646 119.307 385.233 119.262 385.774 119.061C386.315 118.859 386.789 118.509 387.14 118.05C387.14 118.05 384.28 116.85 383.65 116.43C383.02 116.01 378.72 118.58 377.86 120.06C377 121.54 377.59 130.31 377.59 130.31L375.79 139.63C378.49 140.974 381.61 141.207 384.48 140.28L385.26 132.69" fill="white"/>
<path d="M383.76 126C384.54 123.84 382.68 121 382.51 120.7C382.34 120.4 384.08 119.19 384.08 119.19C384.646 119.307 385.233 119.262 385.774 119.061C386.315 118.859 386.789 118.509 387.14 118.05C387.14 118.05 384.28 116.85 383.65 116.43C383.02 116.01 378.72 118.58 377.86 120.06C377 121.54 377.59 130.31 377.59 130.31L375.79 139.63C378.49 140.974 381.61 141.207 384.48 140.28L385.26 132.69" stroke="#263238" stroke-linecap="round" stroke-linejoin="round"/>
<path d="M385.4 120.9C386.107 120.283 386.855 119.714 387.64 119.2" stroke="#263238" stroke-linecap="round" stroke-linejoin="round"/>
<path d="M386.67 123.85L388.88 121.91" stroke="#263238" stroke-linecap="round" stroke-linejoin="round"/>
<path d="M387.37 127.64L389.35 126.04" stroke="#263238" stroke-linecap="round" stroke-linejoin="round"/>
<path d="M251.05 267.19L247.82 268.67C247.82 268.67 247.13 274.97 251.05 277L254.63 275.85C254.63 275.85 253.8 270.85 252.43 269.03" fill="#BFBFBF"/>
<path d="M251.05 267.19L247.82 268.67C247.82 268.67 247.13 274.97 251.05 277L254.63 275.85C254.63 275.85 253.8 270.85 252.43 269.03" stroke="#263238" stroke-linecap="round" stroke-linejoin="round"/>
<path d="M248.42 270L241.67 271.39C241.67 271.39 235.04 273.28 233.67 273.39C232.3 273.5 230.29 279.82 230.41 280.83C230.53 281.84 231.67 284.83 232.83 284.04C233.63 283.51 232.31 280.41 232.31 280.41C232.994 279.636 233.604 278.799 234.13 277.91C234.13 277.91 238.53 276.91 239.13 276.7C239.73 276.49 239.63 278.27 239.32 278.88C239.01 279.49 236.12 281.51 235.87 282.73C235.56 284.31 236.77 284.58 236.77 284.58C236.77 284.58 239.37 281.72 241.53 281.58C243.69 281.44 246.46 278.58 247.53 277.83C248.671 277.115 249.861 276.48 251.09 275.93C251.09 275.93 250.36 272 248.42 270Z" fill="white" stroke="#263238" stroke-linecap="round" stroke-linejoin="round"/>
<path d="M297.3 225.14C297.3 225.14 299.05 232.53 303.01 236.22" stroke="#263238" stroke-linecap="round" stroke-linejoin="round"/>
<path d="M292.37 231.56C292.37 231.56 297.3 235.38 300.16 235.8" stroke="#263238" stroke-linecap="round" stroke-linejoin="round"/>
<path d="M273.71 247.63C273.71 247.63 278.29 250.74 277.27 255.37" stroke="#263238" stroke-linecap="round" stroke-linejoin="round"/>
<path d="M314.41 211.07C314.41 211.07 325.48 217.35 331.96 206.73" stroke="#263238" stroke-linecap="round" stroke-linejoin="round"/>
<path d="M347.72 196.12C347.72 196.12 349.96 207.22 356.14 210.77" stroke="#263238" stroke-linecap="round" stroke-linejoin="round"/>
<path d="M366.55 177.46C366.55 177.46 370.85 182.2 372.94 178.26" stroke="#263238" stroke-linecap="round" stroke-linejoin="round"/>
<path d="M373.62 142.78C373.62 142.78 377.41 145.78 383.42 144.14" stroke="#263238" stroke-linecap="round" stroke-linejoin="round"/>
<path d="M332 200.55C332 200.55 328 207.79 323.59 209.24C318 211.07 314.45 206.01 314.45 206.01L313.79 202.58L312.11 194L326.56 190.46C326.555 191.647 326.683 192.831 326.94 193.99C328.16 199.33 332 200.55 332 200.55Z" fill="white" stroke="#263238" stroke-linecap="round" stroke-linejoin="round"/>
<path d="M326.94 194C325.696 196.467 323.82 198.561 321.502 200.066C319.185 201.572 316.51 202.436 313.75 202.57L312.11 194L326.56 190.46C326.555 191.65 326.682 192.838 326.94 194Z" fill="#263238"/>
<path d="M329.74 179.8C329.74 179.8 332.74 177.65 333.39 179.12C334.04 180.59 333.06 179.88 332.86 182.68C332.66 185.48 332.09 188.39 329.65 188.41C327.21 188.43 328.08 180.82 329.74 179.8Z" fill="white" stroke="#263238" stroke-linecap="round" stroke-linejoin="round"/>
<path d="M306.75 179.77C306.75 179.77 303.97 177.29 303.2 178.69C302.43 180.09 303.45 179.48 303.34 182.28C303.23 185.08 303.47 188.05 305.89 188.33C308.31 188.61 308.29 181 306.75 179.77Z" fill="white" stroke="#263238" stroke-linecap="round" stroke-linejoin="round"/>
<path d="M317.67 163.8C311.12 163.8 307.82 165.07 306.3 170.03C303.99 177.61 306.73 190.31 307.48 192.61C308.15 194.61 313.72 198.03 317.12 198.2C319.39 198.32 326.05 195.49 327.43 193.2C328.16 191.98 332.04 179.12 329.58 170.92C328.07 165.9 324 163.74 317.67 163.8Z" fill="white" stroke="#263238" stroke-linecap="round" stroke-linejoin="round"/>
<path d="M312.11 172.92C311.213 172.978 310.346 173.267 309.595 173.759C308.843 174.252 308.231 174.931 307.82 175.73" stroke="#263238" stroke-linecap="round" stroke-linejoin="round"/>
<path d="M319.41 172.8C320.375 172.667 321.358 172.811 322.244 173.217C323.129 173.622 323.881 174.272 324.41 175.09" stroke="#263238" stroke-linecap="round" stroke-linejoin="round"/>
<path d="M310.3 178.08C310.3 178.57 310.6 178.97 310.96 178.96C311.32 178.95 311.59 178.55 311.58 178.06C311.57 177.57 311.28 177.18 310.93 177.18C310.58 177.18 310.3 177.59 310.3 178.08Z" fill="#263238"/>
<path d="M321 177.94C321 178.43 321.3 178.82 321.65 178.82C322 178.82 322.29 178.41 322.28 177.92C322.27 177.43 321.98 177.03 321.63 177.04C321.28 177.05 321 177.45 321 177.94Z" fill="#263238"/>
<path d="M314.48 175.85C315.11 176.54 314.29 182.67 313.48 183.51C312.67 184.35 313.98 185.51 315.68 185.6" stroke="#263238" stroke-linecap="round" stroke-linejoin="round"/>
<path d="M312.32 189C312.32 189 320.08 188.41 321.9 186.44C321.9 186.44 323.36 189.94 319.9 191.37C316.44 192.8 312.86 193.06 312.32 189Z" stroke="#263238" stroke-linecap="round" stroke-linejoin="round"/>
<path d="M315 167.89C315 167.89 321.92 166.76 322.18 166.76C322.44 166.76 325.85 167.76 326.39 168.76C326.93 169.76 327.02 173.94 327.02 173.94C327.02 173.94 328.18 176.15 328.9 177.74C329.437 179.335 329.773 180.991 329.9 182.67L331.9 177.37C331.9 177.37 332.38 166.96 330.9 164.99C329.42 163.02 315 156.71 315 156.71C315 156.71 314.68 159.32 314.39 159.14C314.1 158.96 307.39 155.73 307.39 155.73L307.82 160.12L304.07 160.3V166.16C304.07 166.16 303.43 175.97 305.37 181.42C305.658 178.876 306.246 176.376 307.12 173.97C307.12 173.97 307.03 168.97 307.39 168.38C307.75 167.79 308.91 166.42 315 167.89Z" fill="#263238"/>
<path d="M307.92 452.4C308.3 452.4 320.17 452.02 322.07 452.4C323.97 452.78 326.37 453.66 327.88 453.03C329.39 452.4 335.34 452.23 335.34 452.23" stroke="#263238" stroke-linecap="round" stroke-linejoin="round"/>
<path d="M313.46 445.81C313.46 445.81 318.66 445.32 320.68 446.65L323.33 445.58C323.33 445.58 320.62 443.32 317.93 443.75" stroke="#263238" stroke-linecap="round" stroke-linejoin="round"/>
<path d="M320 441.55C320 441.55 323.26 441.82 324.52 443.7L327.18 441.55C327.18 441.55 323.11 439.16 320.53 440.03" stroke="#263238" stroke-linecap="round" stroke-linejoin="round"/>
<path d="M354.47 252.45C354.47 252.45 345.02 272.29 330.39 275.85" stroke="#263238" stroke-linecap="round" stroke-linejoin="round"/>
<path d="M315.64 234.62C315.64 234.62 326.87 247.08 347.72 243.27" stroke="#263238" stroke-linecap="round" stroke-linejoin="round"/>
<path d="M292.902 398.675L288.189 399.344L288.536 401.789L293.249 401.121L292.902 398.675Z" fill="#04D361" stroke="#263238" stroke-linecap="round" stroke-linejoin="round"/>
<path d="M310 425.1L315.55 424.32L315.16 421.59L310.27 422.29C309 422.45 308.42 424.09 310 425.1Z" fill="#04D361" stroke="#263238" stroke-linecap="round" stroke-linejoin="round"/>
<path d="M303.07 376.56L308.62 375.78L308.23 373.05L303.34 373.75C302.15 373.91 301.54 375.55 303.07 376.56Z" fill="#04D361" stroke="#263238" stroke-linecap="round" stroke-linejoin="round"/>
<path d="M310.74 449.8C317.04 448.91 318.91 425.35 314.91 397.17C310.91 368.99 302.58 346.88 296.28 347.78C289.98 348.68 288.11 372.23 292.1 400.41C296.09 428.59 304.44 450.7 310.74 449.8ZM296.65 350.43C297.26 350.43 300.26 352.54 304.13 362.97C307.51 372.08 310.4 384.36 312.27 397.55C314.14 410.74 314.77 423.34 314.06 433.03C313.24 444.15 310.93 447.03 310.36 447.16C309.77 447.16 306.77 445.07 302.89 434.61C299.51 425.5 296.62 413.22 294.75 400.03C292.88 386.84 292.25 374.24 292.96 364.55C293.78 353.46 296.08 350.59 296.65 350.43V350.43Z" fill="#04D361" stroke="#263238" stroke-linecap="round" stroke-linejoin="round"/>
<path d="M290.1 348.65C283.8 349.55 281.93 373.11 285.93 401.28C289.93 429.45 298.26 451.57 304.56 450.68C310.86 449.79 312.73 426.22 308.73 398.05C304.73 369.88 296.4 347.76 290.1 348.65ZM293.51 363.51C296.45 368.59 299.45 378.11 301.67 389.71C301.459 389.347 301.203 389.011 300.91 388.71L293.51 363.51ZM290.71 361.97C291.71 365.16 296.58 383.92 298.28 390.4C298.118 391.057 298.007 391.726 297.95 392.4L289.43 390.33C288.33 377.51 288.83 367 290.71 362V361.97ZM303.81 409.17C304.008 408.806 304.162 408.42 304.27 408.02C305.36 419.78 305.12 429.76 303.71 435.46L303.81 409.17ZM289.86 394.6L297.98 397.46C297.98 398.14 298.11 398.83 298.21 399.54C298.31 400.25 298.43 400.94 298.56 401.61L291.56 406.61C291.22 404.663 290.903 402.663 290.61 400.61C290.317 398.557 290.067 396.553 289.86 394.6ZM292.34 410.84L299.95 406.48C300.187 407.109 300.475 407.718 300.81 408.3C300.98 415 301.47 434.39 301.45 437.72C298.25 433.45 294.84 423.46 292.34 410.84V410.84Z" fill="white"/>
<g opacity="0.7">
<path opacity="0.7" d="M290.1 348.65C283.8 349.55 281.93 373.11 285.93 401.28C289.93 429.45 298.26 451.57 304.56 450.68C310.86 449.79 312.73 426.22 308.73 398.05C304.73 369.88 296.4 347.76 290.1 348.65ZM293.51 363.51C296.45 368.59 299.45 378.11 301.67 389.71C301.459 389.347 301.203 389.011 300.91 388.71L293.51 363.51ZM290.71 361.97C291.71 365.16 296.58 383.92 298.28 390.4C298.118 391.057 298.007 391.726 297.95 392.4L289.43 390.33C288.33 377.51 288.83 367 290.71 362V361.97ZM303.81 409.17C304.008 408.806 304.162 408.42 304.27 408.02C305.36 419.78 305.12 429.76 303.71 435.46L303.81 409.17ZM289.86 394.6L297.98 397.46C297.98 398.14 298.11 398.83 298.21 399.54C298.31 400.25 298.43 400.94 298.56 401.61L291.56 406.61C291.22 404.663 290.903 402.663 290.61 400.61C290.317 398.557 290.067 396.553 289.86 394.6ZM292.34 410.84L299.95 406.48C300.187 407.109 300.475 407.718 300.81 408.3C300.98 415 301.47 434.39 301.45 437.72C298.25 433.45 294.84 423.46 292.34 410.84V410.84Z" fill="#04D361"/>
</g>
<path d="M290.1 348.65C283.8 349.55 281.93 373.11 285.93 401.28C289.93 429.45 298.26 451.57 304.56 450.68C310.86 449.79 312.73 426.22 308.73 398.05C304.73 369.88 296.4 347.76 290.1 348.65ZM293.51 363.51C296.45 368.59 299.45 378.11 301.67 389.71C301.459 389.347 301.203 389.011 300.91 388.71L293.51 363.51ZM290.71 361.97C291.71 365.16 296.58 383.92 298.28 390.4C298.118 391.057 298.007 391.726 297.95 392.4L289.43 390.33C288.33 377.51 288.83 367 290.71 362V361.97ZM303.81 409.17C304.008 408.806 304.162 408.42 304.27 408.02C305.36 419.78 305.12 429.76 303.71 435.46L303.81 409.17ZM289.86 394.6L297.98 397.46C297.98 398.14 298.11 398.83 298.21 399.54C298.31 400.25 298.43 400.94 298.56 401.61L291.56 406.61C291.22 404.663 290.903 402.663 290.61 400.61C290.317 398.557 290.067 396.553 289.86 394.6ZM292.34 410.84L299.95 406.48C300.187 407.109 300.475 407.718 300.81 408.3C300.98 415 301.47 434.39 301.45 437.72C298.25 433.45 294.84 423.46 292.34 410.84V410.84Z" stroke="#263238" stroke-linecap="round" stroke-linejoin="round"/>
<path d="M301.5 454.58C296.81 454.58 292.5 449.3 288.5 438.49C284.89 428.93 281.82 416.02 279.85 402.15C277.85 388.28 277.25 375.02 278.06 364.84C279.06 352.58 281.96 346.28 287 345.56C292.04 344.84 296.61 350.09 301 361.56C304.61 371.12 307.68 384.03 309.64 397.9C311.6 411.77 312.25 425.03 311.44 435.22C310.44 447.47 307.54 453.77 302.5 454.49C302.169 454.544 301.835 454.574 301.5 454.58V454.58ZM288 352.62C285.34 355.34 282.79 373.01 286.78 401.17C290.77 429.33 298.13 445.59 301.45 447.47C304.11 444.74 306.65 427.07 302.66 398.92C298.67 370.77 291.27 354.49 288 352.62Z" fill="#263238"/>
<path d="M285.69 349.28C279.39 350.17 277.52 373.73 281.51 401.91C285.5 430.09 293.85 452.2 300.15 451.3C306.45 450.4 308.32 426.85 304.32 398.67C300.32 370.49 292 348.39 285.69 349.28ZM298.07 446.07C293.2 446.76 286.36 426.91 282.79 401.73C279.22 376.55 280.28 355.57 285.15 354.88C290.02 354.19 296.86 374.05 300.43 399.23C304 424.41 302.94 445.38 298.07 446.07Z" fill="white"/>
<path opacity="0.4" d="M285.69 349.28C279.39 350.17 277.52 373.73 281.51 401.91C285.5 430.09 293.85 452.2 300.15 451.3C306.45 450.4 308.32 426.85 304.32 398.67C300.32 370.49 292 348.39 285.69 349.28ZM298.07 446.07C293.2 446.76 286.36 426.91 282.79 401.73C279.22 376.55 280.28 355.57 285.15 354.88C290.02 354.19 296.86 374.05 300.43 399.23C304 424.41 302.94 445.38 298.07 446.07Z" fill="#04D361"/>
<path d="M285.69 349.28C279.39 350.17 277.52 373.73 281.51 401.91C285.5 430.09 293.85 452.2 300.15 451.3C306.45 450.4 308.32 426.85 304.32 398.67C300.32 370.49 292 348.39 285.69 349.28ZM298.07 446.07C293.2 446.76 286.36 426.91 282.79 401.73C279.22 376.55 280.28 355.57 285.15 354.88C290.02 354.19 296.86 374.05 300.43 399.23C304 424.41 302.94 445.38 298.07 446.07Z" stroke="#263238" stroke-linecap="round" stroke-linejoin="round"/>
<path d="M263.26 404H301.22L300.01 396.39H263.26V404Z" fill="#1A2E35"/>
<path d="M277.89 435.79H259.42C258.829 435.79 258.261 435.555 257.843 435.137C257.425 434.719 257.19 434.151 257.19 433.56C257.19 432.969 257.425 432.401 257.843 431.983C258.261 431.565 258.829 431.33 259.42 431.33H277.89C280.067 431.327 282.153 430.462 283.692 428.922C285.232 427.383 286.097 425.297 286.1 423.12V337.45C286.1 335.737 285.419 334.094 284.208 332.882C282.996 331.671 281.353 330.99 279.64 330.99H264.92C264.329 330.99 263.761 330.755 263.343 330.337C262.925 329.919 262.69 329.351 262.69 328.76C262.69 328.169 262.925 327.601 263.343 327.183C263.761 326.765 264.329 326.53 264.92 326.53H279.64C282.535 326.533 285.311 327.684 287.359 329.731C289.406 331.779 290.557 334.555 290.56 337.45V423.12C290.557 426.48 289.222 429.701 286.846 432.076C284.471 434.452 281.249 435.787 277.89 435.79V435.79Z" fill="white"/>
<path opacity="0.4" d="M277.89 435.79H259.42C258.829 435.79 258.261 435.555 257.843 435.137C257.425 434.719 257.19 434.151 257.19 433.56C257.19 432.969 257.425 432.401 257.843 431.983C258.261 431.565 258.829 431.33 259.42 431.33H277.89C280.067 431.327 282.153 430.462 283.692 428.922C285.232 427.383 286.097 425.297 286.1 423.12V337.45C286.1 335.737 285.419 334.094 284.208 332.882C282.996 331.671 281.353 330.99 279.64 330.99H264.92C264.329 330.99 263.761 330.755 263.343 330.337C262.925 329.919 262.69 329.351 262.69 328.76C262.69 328.169 262.925 327.601 263.343 327.183C263.761 326.765 264.329 326.53 264.92 326.53H279.64C282.535 326.533 285.311 327.684 287.359 329.731C289.406 331.779 290.557 334.555 290.56 337.45V423.12C290.557 426.48 289.222 429.701 286.846 432.076C284.471 434.452 281.249 435.787 277.89 435.79V435.79Z" fill="#04D361"/>
<path d="M277.89 435.79H259.42C258.829 435.79 258.261 435.555 257.843 435.137C257.425 434.719 257.19 434.151 257.19 433.56C257.19 432.969 257.425 432.401 257.843 431.983C258.261 431.565 258.829 431.33 259.42 431.33H277.89C280.067 431.327 282.153 430.462 283.692 428.922C285.232 427.383 286.097 425.297 286.1 423.12V337.45C286.1 335.737 285.419 334.094 284.208 332.882C282.996 331.671 281.353 330.99 279.64 330.99H264.92C264.329 330.99 263.761 330.755 263.343 330.337C262.925 329.919 262.69 329.351 262.69 328.76C262.69 328.169 262.925 327.601 263.343 327.183C263.761 326.765 264.329 326.53 264.92 326.53H279.64C282.535 326.533 285.311 327.684 287.359 329.731C289.406 331.779 290.557 334.555 290.56 337.45V423.12C290.557 426.48 289.222 429.701 286.846 432.076C284.471 434.452 281.249 435.787 277.89 435.79V435.79Z" stroke="#263238" stroke-linecap="round" stroke-linejoin="round"/>
<path d="M288.62 323.42H272.83C271.83 323.42 271.01 324.61 271.01 326.08C271.01 327.55 271.82 328.74 272.83 328.74H288.62C289.62 328.74 290.45 327.55 290.45 326.08C290.45 324.61 289.63 323.42 288.62 323.42Z" fill="#263238"/>
<path d="M272.28 328.62L289.05 323.5L283.37 322.07C283.205 321.987 283.024 321.943 282.84 321.94H267C266 321.94 265.18 323.13 265.18 324.6C265.149 325.071 265.236 325.541 265.431 325.971C265.626 326.4 265.925 326.774 266.3 327.06V327.06L266.48 327.14L266.64 327.21L272.28 328.62Z" fill="#263238"/>
<path d="M261 344.76V272H181.31V347H184.09V358C184.09 358 254.76 394.78 288.27 356.91L286.1 344.83L261 344.76Z" fill="#757575"/>
<path opacity="0.2" d="M261 282.82C249.421 278.586 237.189 276.417 224.86 276.41C205.37 276.64 189.67 299.8 188.94 310.67C188.21 321.54 194.55 328.67 204.78 324.29C215.01 319.91 227.51 320.51 229.13 326.08C230.75 331.65 204.93 339.29 209.38 344.76C213.83 350.23 261 344.76 261 344.76V282.82Z" fill="black" fill-opacity="0.7"/>
<path opacity="0.2" d="M188.89 347.75C188.89 347.75 209.8 363.93 238.24 364.75C266.68 365.57 290.7 344.75 290.7 344.75H261L188.89 347.75Z" fill="black" fill-opacity="0.7"/>
<path d="M261 344.76V272H181.31V347H184.09V358C184.09 358 254.76 394.78 288.27 356.91L286.1 344.83L261 344.76Z" stroke="#263238" stroke-linecap="round" stroke-linejoin="round"/>
<path d="M252.09 260.82H251.29C250.699 260.82 250.131 261.055 249.713 261.473C249.295 261.891 249.06 262.459 249.06 263.05C249.06 263.641 249.295 264.209 249.713 264.627C250.131 265.045 250.699 265.28 251.29 265.28H252.09C254.15 265.283 256.125 266.102 257.581 267.559C259.038 269.015 259.857 270.99 259.86 273.05V360.24C259.663 360.178 259.456 360.151 259.25 360.16L252.25 364.71L221.2 386.94L193.1 365.47L186.59 361.1C186.127 361.108 185.678 361.259 185.305 361.533C184.932 361.808 184.654 362.191 184.508 362.631C184.363 363.071 184.359 363.545 184.495 363.987C184.632 364.429 184.902 364.819 185.27 365.1L217.37 389.64L184.09 415.53V273.05C184.09 269.808 182.803 266.699 180.511 264.406C178.22 262.112 175.112 260.823 171.87 260.82H171.06C170.469 260.82 169.901 261.055 169.483 261.473C169.065 261.891 168.83 262.459 168.83 263.05C168.83 263.641 169.065 264.209 169.483 264.627C169.901 265.045 170.469 265.28 171.06 265.28H171.87C173.93 265.283 175.905 266.102 177.361 267.559C178.818 269.015 179.637 270.99 179.64 273.05V420.05C179.637 420.344 179.693 420.635 179.804 420.907C179.915 421.178 180.08 421.425 180.287 421.633C180.495 421.84 180.742 422.005 181.013 422.116C181.285 422.227 181.576 422.283 181.87 422.28C182.363 422.28 182.842 422.115 183.23 421.81L220.94 392.48L260.77 421.85C261.102 422.094 261.496 422.241 261.907 422.275C262.318 422.309 262.731 422.228 263.098 422.042C263.466 421.855 263.775 421.57 263.991 421.219C264.207 420.867 264.321 420.463 264.32 420.05V273.05C264.317 269.807 263.028 266.698 260.735 264.405C258.442 262.112 255.333 260.823 252.09 260.82V260.82ZM259.86 415.67L224.81 389.82L259.86 364.72V415.67Z" fill="white"/>
<g opacity="0.4">
<path opacity="0.4" d="M252.09 260.82H251.29C250.699 260.82 250.131 261.055 249.713 261.473C249.295 261.891 249.06 262.459 249.06 263.05C249.06 263.641 249.295 264.209 249.713 264.627C250.131 265.045 250.699 265.28 251.29 265.28H252.09C254.15 265.283 256.125 266.102 257.581 267.559C259.038 269.015 259.857 270.99 259.86 273.05V360.24C259.663 360.178 259.456 360.151 259.25 360.16L252.25 364.71L221.2 386.94L193.1 365.47L186.59 361.1C186.127 361.108 185.678 361.259 185.305 361.533C184.932 361.808 184.654 362.191 184.508 362.631C184.363 363.071 184.359 363.545 184.495 363.987C184.632 364.429 184.902 364.819 185.27 365.1L217.37 389.64L184.09 415.53V273.05C184.09 269.808 182.803 266.699 180.511 264.406C178.22 262.112 175.112 260.823 171.87 260.82H171.06C170.469 260.82 169.901 261.055 169.483 261.473C169.065 261.891 168.83 262.459 168.83 263.05C168.83 263.641 169.065 264.209 169.483 264.627C169.901 265.045 170.469 265.28 171.06 265.28H171.87C173.93 265.283 175.905 266.102 177.361 267.559C178.818 269.015 179.637 270.99 179.64 273.05V420.05C179.637 420.344 179.693 420.635 179.804 420.907C179.915 421.178 180.08 421.425 180.287 421.633C180.495 421.84 180.742 422.005 181.013 422.116C181.285 422.227 181.576 422.283 181.87 422.28C182.363 422.28 182.842 422.115 183.23 421.81L220.94 392.48L260.77 421.85C261.102 422.094 261.496 422.241 261.907 422.275C262.318 422.309 262.731 422.228 263.098 422.042C263.466 421.855 263.775 421.57 263.991 421.219C264.207 420.867 264.321 420.463 264.32 420.05V273.05C264.317 269.807 263.028 266.698 260.735 264.405C258.442 262.112 255.333 260.823 252.09 260.82V260.82ZM259.86 415.67L224.81 389.82L259.86 364.72V415.67Z" fill="#04D361"/>
</g>
<path d="M252.09 260.82H251.29C250.699 260.82 250.131 261.055 249.713 261.473C249.295 261.891 249.06 262.459 249.06 263.05C249.06 263.641 249.295 264.209 249.713 264.627C250.131 265.045 250.699 265.28 251.29 265.28H252.09C254.15 265.283 256.125 266.102 257.581 267.559C259.038 269.015 259.857 270.99 259.86 273.05V360.24C259.663 360.178 259.456 360.151 259.25 360.16L252.25 364.71L221.2 386.94L193.1 365.47L186.59 361.1C186.127 361.108 185.678 361.259 185.305 361.533C184.932 361.808 184.654 362.191 184.508 362.631C184.363 363.071 184.359 363.545 184.495 363.987C184.632 364.429 184.902 364.819 185.27 365.1L217.37 389.64L184.09 415.53V273.05C184.09 269.808 182.803 266.699 180.511 264.406C178.22 262.112 175.112 260.823 171.87 260.82H171.06C170.469 260.82 169.901 261.055 169.483 261.473C169.065 261.891 168.83 262.459 168.83 263.05C168.83 263.641 169.065 264.209 169.483 264.627C169.901 265.045 170.469 265.28 171.06 265.28H171.87C173.93 265.283 175.905 266.102 177.361 267.559C178.818 269.015 179.637 270.99 179.64 273.05V420.05C179.637 420.344 179.693 420.635 179.804 420.907C179.915 421.178 180.08 421.425 180.287 421.633C180.495 421.84 180.742 422.005 181.013 422.116C181.285 422.227 181.576 422.283 181.87 422.28C182.363 422.28 182.842 422.115 183.23 421.81L220.94 392.48L260.77 421.85C261.102 422.094 261.496 422.241 261.907 422.275C262.318 422.309 262.731 422.228 263.098 422.042C263.466 421.855 263.775 421.57 263.991 421.219C264.207 420.867 264.321 420.463 264.32 420.05V273.05C264.317 269.807 263.028 266.698 260.735 264.405C258.442 262.112 255.333 260.823 252.09 260.82V260.82ZM259.86 415.67L224.81 389.82L259.86 364.72V415.67Z" stroke="#263238" stroke-linecap="round" stroke-linejoin="round"/>
<path d="M263.43 229.31L268.75 223.31C268.75 223.31 269.42 215.26 272.75 208.9C276.08 202.54 279.91 184 279.91 184C279.91 184 275.5 180.44 275.13 178.38C274.944 176.638 274.944 174.882 275.13 173.14C275.13 171.64 278.13 171.45 278.13 171.45V169.58L281.5 166.96C282.783 167.198 284.037 167.573 285.24 168.08C286.18 168.64 289.55 170.14 289.55 170.14C289.964 170.287 290.334 170.535 290.628 170.861C290.921 171.188 291.128 171.583 291.23 172.01C291.61 173.51 290.58 183.25 289.23 185.31C287.88 187.37 286.52 209.47 285.77 214.15C285.02 218.83 283.34 226.88 283.15 227.25C282.42 228.73 282.27 232.25 274.6 242.05" fill="white"/>
<path d="M263.43 229.31L268.75 223.31C268.75 223.31 269.42 215.26 272.75 208.9C276.08 202.54 279.91 184 279.91 184C279.91 184 275.5 180.44 275.13 178.38C274.944 176.638 274.944 174.882 275.13 173.14C275.13 171.64 278.13 171.45 278.13 171.45V169.58L281.5 166.96C282.783 167.198 284.037 167.573 285.24 168.08C286.18 168.64 289.55 170.14 289.55 170.14C289.964 170.287 290.334 170.535 290.628 170.861C290.921 171.188 291.128 171.583 291.23 172.01C291.61 173.51 290.58 183.25 289.23 185.31C287.88 187.37 286.52 209.47 285.77 214.15C285.02 218.83 283.34 226.88 283.15 227.25C282.42 228.73 282.27 232.25 274.6 242.05" stroke="#263238" stroke-linecap="round" stroke-linejoin="round"/>
<path d="M278.13 171.4C279.447 172.109 280.814 172.72 282.22 173.23C282.75 173.23 282.48 175 281.69 175.17C280.9 175.34 278.69 176.05 278.69 176.05C278.69 176.05 281.16 176.23 281.42 179.4" stroke="#263238" stroke-linecap="round" stroke-linejoin="round"/>
<path d="M279.77 172.22C280.314 171.554 280.895 170.92 281.51 170.32C282.218 169.833 282.956 169.392 283.72 169" stroke="#263238" stroke-linecap="round" stroke-linejoin="round"/>
<path d="M280.31 175.55C280.31 176.83 282.39 177.82 283.01 177.02C283.01 177.02 284.16 178.08 284.95 178.08C285.738 177.948 286.542 177.948 287.33 178.08C288.48 178.35 289.27 176.02 289.09 175.55C288.91 175.08 287.95 175.55 287.95 175.55" stroke="#263238" stroke-linecap="round" stroke-linejoin="round"/>
<path d="M286.21 178C285.48 176.79 284.95 175.11 285.21 174.32C285.47 173.53 287.85 171.43 287.85 171.43" stroke="#263238" stroke-linecap="round" stroke-linejoin="round"/>
<path d="M283 177C282.879 176.051 282.706 175.11 282.48 174.18" stroke="#263238" stroke-linecap="round" stroke-linejoin="round"/>
<path d="M282.22 173.23C282.22 173.23 284.22 170.59 285.15 170.23" stroke="#263238" stroke-linecap="round" stroke-linejoin="round"/>
<path d="M279.91 184C280.66 184.89 282.22 184.54 282.22 184.54" stroke="#263238" stroke-linecap="round" stroke-linejoin="round"/>
<path d="M284.71 185.8L286.5 186.37" stroke="#263238" stroke-linecap="round" stroke-linejoin="round"/>
<path d="M188.89 304C188.89 304 185.24 314.76 185.29 316.87C185.34 318.98 188.73 324.01 191.29 324.32C193.85 324.63 205.29 324.32 206.29 324.32C207.29 324.32 205.46 319.43 202.64 313.32L206.19 305.94L188.89 304Z" fill="white" stroke="#263238" stroke-linecap="round" stroke-linejoin="round"/>
<path d="M268.28 324.28C271.1 327.95 270.98 329.6 270.98 329.6C270.98 329.6 223.24 347.34 211.58 338.41C209.48 336.8 211.17 327.83 211.17 327.83L209.39 322.07C209.39 322.07 211.58 317.37 207.87 302.53L206.1 310.67C201.87 305.38 187.41 305.73 187.41 305.73C187.41 305.73 193.05 287.73 196.58 277.54C200.11 267.35 208.21 265.18 215.24 262C222.27 258.82 231.84 251.74 231.84 251.74C231.84 251.74 233.78 254.74 237.84 251.82C241.9 248.9 266.41 224.72 266.41 224.72C267.82 230.81 279.29 237.2 279.29 237.2C279.29 237.2 267.45 255.66 265.69 261C265.222 263.408 265.005 265.857 265.04 268.31C264.73 279.95 265.69 302.54 269.33 320.24C269.456 320.949 269.428 321.677 269.247 322.375C269.066 323.072 268.736 323.722 268.28 324.28V324.28Z" fill="white" stroke="#263238" stroke-linecap="round" stroke-linejoin="round"/>
<path d="M279.28 237.2C279.28 237.2 267.45 255.66 265.69 261C265.222 263.408 265.004 265.857 265.04 268.31C255.75 255.24 242.39 255.95 242.39 255.95L236.25 267.23L223.25 263.23C223.25 263.23 213.05 276.87 213.12 280.4C213.19 283.93 207.88 302.58 207.88 302.58L206.11 310.72C201.88 305.43 187.42 305.78 187.42 305.78C187.42 305.78 193.06 287.78 196.59 277.59C200.12 267.4 208.22 265.23 215.25 262.05C222.28 258.87 231.85 251.79 231.85 251.79C231.85 251.79 233.79 254.79 237.85 251.87C241.91 248.95 266.42 224.77 266.42 224.77C267.81 230.81 279.28 237.2 279.28 237.2Z" fill="#04D361"/>
<path opacity="0.2" d="M279.28 237.2C279.28 237.2 267.45 255.66 265.69 261C265.222 263.408 265.004 265.857 265.04 268.31C255.75 255.24 242.39 255.95 242.39 255.95L236.25 267.23L223.25 263.23C223.25 263.23 213.05 276.87 213.12 280.4C213.19 283.93 207.88 302.58 207.88 302.58L206.11 310.72C201.88 305.43 187.42 305.78 187.42 305.78C187.42 305.78 193.06 287.78 196.59 277.59C200.12 267.4 208.22 265.23 215.25 262.05C222.28 258.87 231.85 251.79 231.85 251.79C231.85 251.79 233.79 254.79 237.85 251.87C241.91 248.95 266.42 224.77 266.42 224.77C267.81 230.81 279.28 237.2 279.28 237.2Z" fill="black" fill-opacity="0.7"/>
<path d="M279.28 237.2C279.28 237.2 267.45 255.66 265.69 261C265.222 263.408 265.004 265.857 265.04 268.31C255.75 255.24 242.39 255.95 242.39 255.95L236.25 267.23L223.25 263.23C223.25 263.23 213.05 276.87 213.12 280.4C213.19 283.93 207.88 302.58 207.88 302.58L206.11 310.72C201.88 305.43 187.42 305.78 187.42 305.78C187.42 305.78 193.06 287.78 196.59 277.59C200.12 267.4 208.22 265.23 215.25 262.05C222.28 258.87 231.85 251.79 231.85 251.79C231.85 251.79 233.79 254.79 237.85 251.87C241.91 248.95 266.42 224.77 266.42 224.77C267.81 230.81 279.28 237.2 279.28 237.2Z" stroke="#263238" stroke-linecap="round" stroke-linejoin="round"/>
<path d="M240.54 241.56V253.9L234.9 264.36L220.9 260.12C221.5 257.97 221.41 253.19 221.23 249.5C221.09 246.75 220.9 244.61 220.9 244.61L240.54 241.56Z" fill="white" stroke="#263238" stroke-linecap="round" stroke-linejoin="round"/>
<path d="M240.54 241.56V253.34C238.384 254.188 236.096 254.655 233.78 254.72C229.34 254.72 224 251.41 221.24 249.5C221.1 246.75 220.91 244.61 220.91 244.61L240.54 241.56Z" fill="#263238"/>
<path d="M216 234.3C216 234.3 212.52 232.48 212.08 234.11C211.64 235.74 212.54 234.86 213.15 237.76C213.76 240.66 214.78 243.63 217.33 243.29C219.88 242.95 217.86 235.13 216 234.3Z" fill="white" stroke="#263238" stroke-linecap="round" stroke-linejoin="round"/>
<path d="M240 231C240 231 242.55 228 243.56 229.36C244.57 230.72 243.42 230.22 243.93 233.15C244.44 236.08 244.62 239.15 242.13 239.84C239.64 240.53 238.6 232.44 240 231Z" fill="white" stroke="#263238" stroke-linecap="round" stroke-linejoin="round"/>
<path d="M226.32 215.81C243.66 213.59 242.82 240.22 242.07 244.38C241.66 246.61 235.37 251.08 231.84 251.75C229.48 252.19 221.15 250.31 219.38 248.14C217.85 246.26 209 218 226.32 215.81Z" fill="white" stroke="#263238" stroke-linecap="round" stroke-linejoin="round"/>
<path d="M231.31 226.39C231.31 226.39 234.57 224.39 236.25 227.01" stroke="#263238" stroke-linecap="round" stroke-linejoin="round"/>
<path d="M225.58 227C225.175 226.768 224.725 226.626 224.261 226.581C223.797 226.536 223.328 226.591 222.886 226.741C222.445 226.892 222.04 227.134 221.699 227.453C221.359 227.772 221.09 228.159 220.91 228.59" stroke="#263238" stroke-linecap="round" stroke-linejoin="round"/>
<path d="M235.13 229.84C235.19 230.35 234.94 230.84 234.57 230.84C234.2 230.84 233.85 230.51 233.79 229.99C233.73 229.47 233.97 228.99 234.34 228.99C234.71 228.99 235.06 229.32 235.13 229.84Z" fill="#263238"/>
<path d="M224.87 231.09C224.93 231.61 224.68 232.09 224.31 232.09C223.94 232.09 223.59 231.75 223.53 231.24C223.47 230.73 223.71 230.24 224.09 230.24C224.47 230.24 224.81 230.58 224.87 231.09Z" fill="#263238"/>
<path d="M229.86 228.2C229.86 228.2 229.59 231.64 230.56 233.05" stroke="#263238" stroke-linecap="round" stroke-linejoin="round"/>
<path d="M229.08 233.75C229.08 233.75 230.56 233.26 231.08 233.75C231.657 234.415 232.172 235.132 232.62 235.89C232.84 236.29 231.87 236.73 231.87 236.73" stroke="#263238" stroke-linecap="round" stroke-linejoin="round"/>
<path d="M228.58 236.73C228.58 236.73 228.75 236.31 229.08 236.31" stroke="#263238" stroke-linecap="round" stroke-linejoin="round"/>
<path d="M235.81 239.62C233.38 240.98 225.58 241.62 225.58 241.62C225.58 241.62 225.23 246.56 231.31 245.62C237.68 244.7 235.81 239.62 235.81 239.62Z" stroke="#263238" stroke-linecap="round" stroke-linejoin="round"/>
<path d="M219.26 220.51C219.26 220.51 222.91 220.87 224.91 219.81V218.63C224.91 218.63 228.34 219.98 230.56 219.63C231.85 219.398 233.17 219.398 234.46 219.63L231.31 217.84C231.31 217.84 235.48 218.31 237.78 220.6L238.54 224.89C240.184 227.273 241.348 229.953 241.97 232.78C241.97 232.78 241.36 221.37 239.25 218.66L240.89 218.43C240.89 218.43 237.72 214.2 233.78 212.9L236.25 212.43C236.25 212.43 224.44 209.85 220.91 213.84L218.79 213.02C218.79 213.02 215.35 217.14 215.79 218.78C214.789 220.419 213.949 222.15 213.28 223.95C212.69 225.95 213.87 233.56 213.87 233.56L216.39 237.89C216.39 237.89 216.57 230.89 218.57 227.62C218.56 227.59 218.23 222.73 219.26 220.51Z" fill="#263238"/>
<path d="M240.72 320.94C234.4 319.8 226 318 222 312.43" stroke="#263238" stroke-linecap="round" stroke-linejoin="round"/>
<path d="M256.56 322.48C252.467 322.397 248.382 322.063 244.33 321.48" stroke="#263238" stroke-linecap="round" stroke-linejoin="round"/>
<path d="M240.41 300.1C239.098 301.093 237.632 301.863 236.07 302.38" stroke="#263238" stroke-linecap="round" stroke-linejoin="round"/>
<path d="M253.39 285.81C250.5 290.167 247.111 294.171 243.29 297.74" stroke="#263238" stroke-linecap="round" stroke-linejoin="round"/>
<path d="M205.55 274.64C205.55 274.64 211.73 276.41 213.11 280.35" stroke="#263238" stroke-linecap="round" stroke-linejoin="round"/>
<path d="M212.16 294.63C211.952 296.371 211.383 298.051 210.49 299.56" stroke="#263238" stroke-linecap="round" stroke-linejoin="round"/>
<path d="M212.21 285.81C212.42 287.589 212.5 289.38 212.45 291.17" stroke="#263238" stroke-linecap="round" stroke-linejoin="round"/>
<path d="M265.19 259.34C265.12 260.24 265.08 261.16 265.08 262.07" stroke="#263238" stroke-linecap="round" stroke-linejoin="round"/>
<path d="M266.2 253C265.98 254 265.79 254.94 265.63 255.92" stroke="#263238" stroke-linecap="round" stroke-linejoin="round"/>
<path d="M245.11 245.32C245.11 245.32 250.8 242.67 253.39 244.32" stroke="#263238" stroke-linecap="round" stroke-linejoin="round"/>
<path d="M188 304C188 304 194.54 301.18 197.89 302.41" stroke="#263238" stroke-linecap="round" stroke-linejoin="round"/>
<path d="M273.38 396.39H177.72V403.99H273.38V396.39Z" fill="#1A2E35"/>
<path d="M235.51 435.79H216.72C213.137 435.787 209.701 434.363 207.166 431.831C204.632 429.298 203.205 425.863 203.2 422.28V339.2C203.195 337.027 202.329 334.944 200.792 333.408C199.256 331.871 197.173 331.005 195 331H190.79C190.199 331 189.631 330.765 189.213 330.347C188.795 329.929 188.56 329.361 188.56 328.77C188.56 328.179 188.795 327.611 189.213 327.193C189.631 326.775 190.199 326.54 190.79 326.54H195C198.359 326.543 201.581 327.878 203.956 330.254C206.332 332.629 207.667 335.851 207.67 339.21V422.29C207.673 424.691 208.628 426.993 210.327 428.69C212.026 430.387 214.329 431.34 216.73 431.34H235.52C236.111 431.34 236.679 431.575 237.097 431.993C237.515 432.411 237.75 432.979 237.75 433.57C237.75 434.161 237.515 434.729 237.097 435.147C236.679 435.565 236.111 435.8 235.52 435.8L235.51 435.79Z" fill="white"/>
<g opacity="0.4">
<path opacity="0.4" d="M235.51 435.79H216.72C213.137 435.787 209.701 434.363 207.166 431.831C204.632 429.298 203.205 425.863 203.2 422.28V339.2C203.195 337.027 202.329 334.944 200.792 333.408C199.256 331.871 197.173 331.005 195 331H190.79C190.199 331 189.631 330.765 189.213 330.347C188.795 329.929 188.56 329.361 188.56 328.77C188.56 328.179 188.795 327.611 189.213 327.193C189.631 326.775 190.199 326.54 190.79 326.54H195C198.359 326.543 201.581 327.878 203.956 330.254C206.332 332.629 207.667 335.851 207.67 339.21V422.29C207.673 424.691 208.628 426.993 210.327 428.69C212.026 430.387 214.329 431.34 216.73 431.34H235.52C236.111 431.34 236.679 431.575 237.097 431.993C237.515 432.411 237.75 432.979 237.75 433.57C237.75 434.161 237.515 434.729 237.097 435.147C236.679 435.565 236.111 435.8 235.52 435.8L235.51 435.79Z" fill="#04D361"/>
</g>
<path d="M235.51 435.79H216.72C213.137 435.787 209.701 434.363 207.166 431.831C204.632 429.298 203.205 425.863 203.2 422.28V339.2C203.195 337.027 202.329 334.944 200.792 333.408C199.256 331.871 197.173 331.005 195 331H190.79C190.199 331 189.631 330.765 189.213 330.347C188.795 329.929 188.56 329.361 188.56 328.77C188.56 328.179 188.795 327.611 189.213 327.193C189.631 326.775 190.199 326.54 190.79 326.54H195C198.359 326.543 201.581 327.878 203.956 330.254C206.332 332.629 207.667 335.851 207.67 339.21V422.29C207.673 424.691 208.628 426.993 210.327 428.69C212.026 430.387 214.329 431.34 216.73 431.34H235.52C236.111 431.34 236.679 431.575 237.097 431.993C237.515 432.411 237.75 432.979 237.75 433.57C237.75 434.161 237.515 434.729 237.097 435.147C236.679 435.565 236.111 435.8 235.52 435.8L235.51 435.79Z" stroke="#263238" stroke-linecap="round" stroke-linejoin="round"/>
<path d="M208.4 323.42H192.61C191.61 323.42 190.78 324.61 190.78 326.08C190.78 327.55 191.6 328.74 192.61 328.74H208.4C209.4 328.74 210.22 327.55 210.22 326.08C210.22 324.61 209.41 323.42 208.4 323.42Z" fill="#263238"/>
<path d="M192.05 328.62L208.83 323.5L203.14 322.07C202.975 321.988 202.794 321.944 202.61 321.94H186.81C185.81 321.94 184.98 323.13 184.98 324.6C184.951 325.071 185.04 325.542 185.237 325.972C185.434 326.401 185.734 326.775 186.11 327.06V327.06L186.29 327.14L186.44 327.21L192.05 328.62Z" fill="#263238"/>
<path d="M176.4 372L170.83 371.38L170.53 374.12L175.44 374.66C176.63 374.76 177.64 373.32 176.4 372Z" fill="#04D361" stroke="#263238" stroke-linecap="round" stroke-linejoin="round"/>
<path d="M171 420.7L165.43 420.08L165.13 422.82L170.04 423.36C171.28 423.49 172.28 422.05 171 420.7Z" fill="#04D361" stroke="#263238" stroke-linecap="round" stroke-linejoin="round"/>
<path d="M189.64 394.44L190.21 390.06L180.58 392.74C180.58 392.74 187.66 361.74 187.9 361.38C188.14 361.02 186.19 358.97 186.19 358.97L178.07 390.21L180.6 397.94L189.64 394.44Z" fill="white"/>
<path opacity="0.6" d="M189.64 394.44L190.21 390.06L180.58 392.74C180.58 392.74 187.66 361.74 187.9 361.38C188.14 361.02 186.19 358.97 186.19 358.97L178.07 390.21L180.6 397.94L189.64 394.44Z" fill="#04D361"/>
<path d="M189.64 394.44L190.21 390.06L180.58 392.74C180.58 392.74 187.66 361.74 187.9 361.38C188.14 361.02 186.19 358.97 186.19 358.97L178.07 390.21L180.6 397.94L189.64 394.44Z" stroke="#263238" stroke-linecap="round" stroke-linejoin="round"/>
<path d="M188.31 406.49L180.25 401.11L176.1 408.11L177.24 440.36C177.24 440.36 179.61 438.76 179.44 438.36C179.27 437.96 179.1 406.16 179.1 406.16L187.92 410.86L188.31 406.49Z" fill="white"/>
<path opacity="0.6" d="M188.31 406.49L180.25 401.11L176.1 408.11L177.24 440.36C177.24 440.36 179.61 438.76 179.44 438.36C179.27 437.96 179.1 406.16 179.1 406.16L187.92 410.86L188.31 406.49Z" fill="#04D361"/>
<path d="M188.31 406.49L180.25 401.11L176.1 408.11L177.24 440.36C177.24 440.36 179.61 438.76 179.44 438.36C179.27 437.96 179.1 406.16 179.1 406.16L187.92 410.86L188.31 406.49Z" stroke="#263238" stroke-linecap="round" stroke-linejoin="round"/>
<path d="M179.68 454.76C179.444 454.775 179.206 454.775 178.97 454.76C173.9 454.2 170.78 447.99 169.43 435.76C168.3 425.6 168.52 412.33 170.05 398.41C171.58 384.49 174.25 371.48 177.56 361.81C181.56 350.18 185.95 344.81 191 345.35C196.05 345.89 199.18 352.12 200.54 364.35C201.67 374.51 201.44 387.77 199.91 401.7C198.38 415.63 195.72 428.62 192.41 438.29C188.62 449.35 184.45 454.76 179.68 454.76ZM190.22 352.42C186.97 354.42 180.12 370.89 177.01 399.15C173.9 427.41 177.01 445 179.75 447.64C183 445.64 189.85 429.17 192.95 400.9C196.06 372.64 193 355.05 190.22 352.42V352.42Z" fill="#263238"/>
<path d="M188 348.52C181.67 347.83 174 370.2 170.92 398.52C167.84 426.84 170.41 450.29 176.74 450.99C183.07 451.69 190.74 429.32 193.81 400.99C196.88 372.66 194.28 349.22 188 348.52ZM178.48 439.09C175.35 434.09 174.41 417.91 176.48 399.09C178.55 380.27 182.97 364.73 187.12 360.48C190.24 365.48 191.18 381.66 189.12 400.48C187.06 419.3 182.58 434.84 178.44 439.09H178.48Z" fill="white"/>
<path opacity="0.4" d="M176.44 399.09C174.37 417.91 175.31 434.09 178.44 439.09C178.159 439.449 177.799 439.74 177.388 439.939C176.977 440.138 176.527 440.241 176.07 440.24C171.36 439.72 169.54 421.08 172.01 398.6C174.48 376.12 180.31 358.33 185.01 358.84C185.455 358.939 185.873 359.138 186.23 359.422C186.587 359.706 186.874 360.068 187.07 360.48C182.93 364.73 178.51 380.27 176.44 399.09Z" fill="#04D361"/>
<path d="M188 348.52C181.67 347.83 174 370.2 170.92 398.52C167.84 426.84 170.41 450.29 176.74 450.99C183.07 451.69 190.74 429.32 193.81 400.99C196.88 372.66 194.28 349.22 188 348.52ZM178.48 439.09C175.35 434.09 174.41 417.91 176.48 399.09C178.55 380.27 182.97 364.73 187.12 360.48C190.24 365.48 191.18 381.66 189.12 400.48C187.06 419.3 182.58 434.84 178.44 439.09H178.48Z" stroke="#263238" stroke-linecap="round" stroke-linejoin="round"/>
<path d="M180.81 362.57C182.05 360.34 184.94 356.74 187.08 360.48" stroke="#263238" stroke-linecap="round" stroke-linejoin="round"/>
<path d="M176.8 372.8C177.09 371.8 177.4 370.87 177.72 369.91" stroke="#263238" stroke-linecap="round" stroke-linejoin="round"/>
<path d="M172.76 392.34C173.497 386.955 174.525 381.614 175.84 376.34" stroke="#263238" stroke-linecap="round" stroke-linejoin="round"/>
<path d="M170.77 419C170.646 411.434 171.124 403.87 172.2 396.38" stroke="#263238" stroke-linecap="round" stroke-linejoin="round"/>
<path d="M171.35 426.76C171.18 425.38 171.05 423.99 170.95 422.6" stroke="#263238" stroke-linecap="round" stroke-linejoin="round"/>
<path d="M178.44 439.09C174.93 444.24 172.21 432.09 171.85 430.09" stroke="#263238" stroke-linecap="round" stroke-linejoin="round"/>
<path d="M178.64 393.23L176.14 387.99C175.547 389.054 175.138 390.21 174.93 391.41L176.53 399.1L173.3 406.26C173.242 407.472 173.387 408.686 173.73 409.85L177.31 405.28L177.57 399.21L178.64 393.23Z" fill="white"/>
<path opacity="0.6" d="M178.64 393.23L176.14 387.99C175.547 389.054 175.138 390.21 174.93 391.41L176.53 399.1L173.3 406.26C173.242 407.472 173.387 408.686 173.73 409.85L177.31 405.28L177.57 399.21L178.64 393.23Z" fill="#04D361"/>
<path d="M178.64 393.23L176.14 387.99C175.547 389.054 175.138 390.21 174.93 391.41L176.53 399.1L173.3 406.26C173.242 407.472 173.387 408.686 173.73 409.85L177.31 405.28L177.57 399.21L178.64 393.23Z" stroke="#263238" stroke-linecap="round" stroke-linejoin="round"/>
<path d="M181.44 399.64C180.78 405.64 178.85 410.42 177.14 410.23C175.43 410.04 174.57 404.99 175.24 398.96C175.91 392.93 177.83 388.18 179.54 388.37C181.25 388.56 182.1 393.6 181.44 399.64Z" fill="white"/>
<path opacity="0.4" d="M181.44 399.64C180.78 405.64 178.85 410.42 177.14 410.23C176.06 410.11 175.31 408.05 175.14 405.02C175.307 405.218 175.543 405.343 175.8 405.37C177.51 405.56 179.44 400.81 180.11 394.78C180.342 392.768 180.388 390.74 180.25 388.72C181.45 390 182 394.44 181.44 399.64Z" fill="#04D361"/>
<path d="M181.44 399.64C180.78 405.64 178.85 410.42 177.14 410.23C175.43 410.04 174.57 404.99 175.24 398.96C175.91 392.93 177.83 388.18 179.54 388.37C181.25 388.56 182.1 393.6 181.44 399.64Z" stroke="#263238" stroke-linecap="round" stroke-linejoin="round"/>
<path d="M186.42 356.69L184.5 356.48L184.92 352.65L186.84 352.86C187.348 352.918 187.812 353.174 188.13 353.574C188.449 353.973 188.596 354.482 188.54 354.99V354.99C188.514 355.241 188.438 355.485 188.317 355.707C188.196 355.929 188.032 356.125 187.835 356.283C187.638 356.441 187.411 356.558 187.168 356.628C186.925 356.698 186.671 356.719 186.42 356.69Z" fill="#04D361" stroke="#263238" stroke-linecap="round" stroke-linejoin="round"/>
<path d="M188 402.3L186.09 402.09L186.51 398.26L188.42 398.47C188.672 398.497 188.917 398.574 189.139 398.696C189.361 398.818 189.558 398.983 189.717 399.18C189.875 399.378 189.994 399.606 190.065 399.849C190.136 400.093 190.158 400.348 190.13 400.6V400.6C190.103 400.852 190.026 401.096 189.904 401.318C189.782 401.54 189.617 401.735 189.419 401.893C189.221 402.051 188.994 402.169 188.75 402.238C188.507 402.308 188.252 402.329 188 402.3V402.3Z" fill="#04D361" stroke="#263238" stroke-linecap="round" stroke-linejoin="round"/>
<path d="M178.18 444.39L176.26 444.18L176.68 440.35L178.6 440.56C178.852 440.587 179.096 440.664 179.318 440.786C179.54 440.908 179.735 441.073 179.893 441.271C180.051 441.469 180.169 441.696 180.239 441.94C180.308 442.184 180.329 442.438 180.3 442.69C180.273 442.941 180.196 443.184 180.075 443.405C179.953 443.627 179.789 443.822 179.592 443.98C179.396 444.138 179.169 444.255 178.927 444.326C178.685 444.396 178.431 444.418 178.18 444.39V444.39Z" fill="#04D361" stroke="#263238" stroke-linecap="round" stroke-linejoin="round"/>
<path d="M181.75 347.84C175.43 347.14 167.75 369.51 164.67 397.84C161.59 426.17 164.17 449.62 170.49 450.32C176.81 451.02 184.49 428.65 187.57 400.32C190.65 371.99 188.08 348.54 181.75 347.84ZM170.75 447.61C170.16 447.46 167.75 444.67 166.61 433.61C165.61 423.95 165.83 411.34 167.29 398.1C168.75 384.86 171.29 372.49 174.29 363.28C177.84 352.71 180.78 350.52 181.37 350.51C181.96 350.5 184.37 353.42 185.5 364.51C186.5 374.17 186.28 386.79 184.82 400.03C183.36 413.27 180.82 425.64 177.82 434.85C174.32 445.39 171.39 447.59 170.79 447.61H170.75Z" fill="#04D361" stroke="#263238" stroke-linecap="round" stroke-linejoin="round"/>
<path d="M287.24 421.4C285.259 423.264 282.913 424.698 280.35 425.61C277.35 426.51 268.02 426.45 268.02 426.45L254.92 427.34C254.587 426.711 254.345 426.037 254.2 425.34C252.97 419.66 255.58 409.88 255.58 409.88L269.58 406.51C269.58 406.51 270 408.51 270.53 410.36C270.96 411.93 271.47 413.43 271.87 413.66C272.75 414.2 285.42 416.88 286.31 418.66C286.811 419.497 287.128 420.431 287.24 421.4Z" fill="white"/>
<path opacity="0.4" d="M264.46 415.68C264.74 417.94 257.87 422.86 254.2 425.31C252.97 419.63 255.58 409.85 255.58 409.85L269.58 406.48C269.58 406.48 270 408.48 270.53 410.33C267.76 411.69 264.22 413.8 264.46 415.68Z" fill="#04D361"/>
<path d="M287.24 421.4C285.259 423.264 282.913 424.698 280.35 425.61C277.35 426.51 268.02 426.45 268.02 426.45L254.92 427.34C254.587 426.711 254.345 426.037 254.2 425.34C252.97 419.66 255.58 409.88 255.58 409.88L269.58 406.51C269.58 406.51 270 408.51 270.53 410.36C270.96 411.93 271.47 413.43 271.87 413.66C272.75 414.2 285.42 416.88 286.31 418.66C286.811 419.497 287.128 420.431 287.24 421.4Z" stroke="#263238" stroke-linecap="round" stroke-linejoin="round"/>
<path d="M265.64 413.11C264.18 414.33 267.32 415.67 267.32 415.67C267.32 415.67 272.26 413.81 273.37 414.11L271.73 411.35C269.55 411.145 267.374 411.774 265.64 413.11V413.11Z" fill="white" stroke="#263238" stroke-linecap="round" stroke-linejoin="round"/>
<path d="M270.9 416.91C270.9 416.91 274.28 413.7 275.52 413.49C276.76 413.28 279.12 414.8 279.12 414.8C279.12 414.8 275.96 416.46 275.61 417.6L270.9 416.91Z" fill="white" stroke="#263238" stroke-linecap="round" stroke-linejoin="round"/>
<path d="M242.34 426.76L221.83 429.15C220.983 427.793 220.444 426.268 220.25 424.68C220.19 423.05 223.64 416.79 225 413.85C225.251 413.396 225.433 412.907 225.54 412.4C225.54 411.34 230.54 404 230.54 404L244.38 405.53C244.38 405.53 243.77 409.35 243.51 411.35C243.31 412.84 244.19 415.82 244.82 418.71C245.04 419.71 245.23 420.71 245.34 421.59C245.77 425.14 242.34 426.76 242.34 426.76Z" fill="white"/>
<path d="M242.33 414.17C242.33 414.17 232.99 412.17 228.43 414.17C223.87 416.17 225.71 412.95 227.3 411.35C228.89 409.75 240.3 410.25 241.89 411.35L242.33 414.17Z" fill="white" stroke="#263238" stroke-linecap="round" stroke-linejoin="round"/>
<path d="M241.4 416.19C240.7 415.84 234.35 415.08 231.97 414.8C229.59 414.52 224.97 415.93 224.81 418.05C224.65 420.17 227.81 418.22 229.68 418.05C231.55 417.88 242.33 419.05 242.33 419.05L241.4 416.19Z" fill="white" stroke="#263238" stroke-linecap="round" stroke-linejoin="round"/>
<path opacity="0.4" d="M244.83 418.71C243.08 416.78 239.38 413.41 234.4 412.56C231.208 412.099 227.95 412.546 225 413.85C225.251 413.396 225.433 412.907 225.54 412.4C225.54 411.34 230.54 404 230.54 404L244.38 405.53C244.38 405.53 243.77 409.35 243.51 411.35C243.32 412.84 244.2 415.82 244.83 418.71Z" fill="#04D361"/>
<path d="M242.34 426.76L221.83 429.15C220.983 427.793 220.444 426.268 220.25 424.68C220.19 423.05 223.64 416.79 225 413.85C225.251 413.396 225.433 412.907 225.54 412.4C225.54 411.34 230.54 404 230.54 404L244.38 405.53C244.38 405.53 243.77 409.35 243.51 411.35C243.31 412.84 244.19 415.82 244.82 418.71C245.04 419.71 245.23 420.71 245.34 421.59C245.77 425.14 242.34 426.76 242.34 426.76Z" stroke="#263238" stroke-linecap="round" stroke-linejoin="round"/>
<path d="M277 359.33C276.41 361.85 275.77 364.94 275.17 368.13C273.65 376.13 272.32 384.77 272.07 386.68C271.72 389.34 269.95 399.52 270.66 400.93C271.37 402.34 272.07 408.32 272.07 408.32C270.222 407.967 268.35 407.76 266.47 407.7C263.25 407.98 254.09 411.34 254.09 411.34C254.09 411.34 252.32 406.57 254.09 402.34C255.146 399.937 255.392 397.255 254.79 394.7L256.9 369.26C255.15 377.44 252.32 389.08 252.32 389.08L247.75 394.7V394.81L245.35 408C245.35 408 238.4 410.19 236.07 409.83C233.92 409.5 228.43 405.68 228.43 405.68L232.62 397.75C232.498 394.854 232.591 391.952 232.9 389.07C233.97 380.23 235.11 370.99 235.69 366.35C235.688 366.32 235.688 366.29 235.69 366.26C235.92 364.4 236.06 363.31 236.06 363.31C236.06 363.31 215.61 360.37 213.06 354.36C211.43 350.5 211.43 343.06 211.61 338.25C211.671 336.92 212.15 335.643 212.98 334.601C213.81 333.56 214.947 332.807 216.23 332.45C222.493 330.685 228.877 329.382 235.33 328.55L236.02 328.45C238.02 326.66 245.56 324.03 247.67 324.28C250.199 324.814 252.665 325.608 255.03 326.65L255.52 326.87C264.59 326.04 267.05 327.81 267.05 327.81C267.05 327.81 267.88 328.16 269.05 328.71C271.61 329.91 275.84 332.06 276.91 333.71C280.48 339.09 279.1 350.52 277 359.33Z" fill="#04D361"/>
<path opacity="0.2" d="M235.7 366.28C235.93 364.42 236.07 363.33 236.07 363.33C236.016 364.321 235.893 365.306 235.7 366.28V366.28Z" fill="black" fill-opacity="0.7"/>
<path opacity="0.2" d="M236.07 363.33C236.07 363.33 215.62 360.39 213.07 354.38C211.44 350.52 211.44 343.08 211.62 338.27C211.681 336.94 212.16 335.663 212.99 334.621C213.82 333.58 214.957 332.827 216.24 332.47C222.503 330.705 228.887 329.401 235.34 328.57C229.44 332.73 223.91 336.41 223.91 336.41L224.77 332.71C224.77 332.71 215.65 341.07 214.91 344.76C212.44 357.16 227.61 362.33 226.2 358.86C224.79 355.39 228.14 346.99 228.39 348.51C228.56 349.51 230.32 352.27 231.12 353.51C230.76 351.61 232.86 346.59 232.86 346.59C232.813 349.485 233.483 352.347 234.81 354.92C235.91 357.578 236.343 360.466 236.07 363.33V363.33Z" fill="black" fill-opacity="0.7"/>
<path opacity="0.2" d="M255.09 326.67L255.58 326.89C264.65 326.06 267.11 327.83 267.11 327.83C267.11 327.83 267.94 328.18 269.11 328.73C266.28 328.73 263.04 329.54 260.97 332.54C259.258 330.349 257.284 328.378 255.09 326.67V326.67Z" fill="black" fill-opacity="0.7"/>
<path opacity="0.2" d="M272 386.69C271.65 389.35 269.88 399.53 270.59 400.94C271.3 402.35 272 408.33 272 408.33C270.152 407.977 268.28 407.77 266.4 407.71C263.18 407.99 254.02 411.35 254.02 411.35C254.02 411.35 252.25 406.58 254.02 402.35C255.076 399.947 255.322 397.265 254.72 394.71L256.83 369.27C255.08 377.45 252.25 389.09 252.25 389.09L247.68 394.71V394.82C247.68 392.52 247.68 390.53 247.68 389.07C247.98 381.73 259.17 336.94 261.46 338.53C263.75 340.12 262.14 344.11 262.4 348.63C262.66 353.15 265.34 372.56 265.17 377.19C265 381.82 262.4 375.55 262.4 375.55C262.4 375.55 260.8 395.3 261 399.3C261.2 403.3 264.19 396.72 267.08 395.48C269.97 394.24 269.08 383.48 269.36 382.26C269.46 381.73 272.14 375.31 275.18 368.14C273.62 376.13 272.29 384.78 272 386.69Z" fill="black" fill-opacity="0.7"/>
<path d="M277 359.33C276.41 361.85 275.77 364.94 275.17 368.13C273.65 376.13 272.32 384.77 272.07 386.68C271.72 389.34 269.95 399.52 270.66 400.93C271.37 402.34 272.07 408.32 272.07 408.32C270.222 407.967 268.35 407.76 266.47 407.7C263.25 407.98 254.09 411.34 254.09 411.34C254.09 411.34 252.32 406.57 254.09 402.34C255.146 399.937 255.392 397.255 254.79 394.7L256.9 369.26C255.15 377.44 252.32 389.08 252.32 389.08L247.75 394.7V394.81L245.35 408C245.35 408 238.4 410.19 236.07 409.83C233.92 409.5 228.43 405.68 228.43 405.68L232.62 397.75C232.498 394.854 232.591 391.952 232.9 389.07C233.97 380.23 235.11 370.99 235.69 366.35C235.688 366.32 235.688 366.29 235.69 366.26C235.92 364.4 236.06 363.31 236.06 363.31C236.06 363.31 215.61 360.37 213.06 354.36C211.43 350.5 211.43 343.06 211.61 338.25C211.671 336.92 212.15 335.643 212.98 334.601C213.81 333.56 214.947 332.807 216.23 332.45C222.493 330.685 228.877 329.382 235.33 328.55L236.02 328.45C238.02 326.66 245.56 324.03 247.67 324.28C250.199 324.814 252.665 325.608 255.03 326.65L255.52 326.87C264.59 326.04 267.05 327.81 267.05 327.81C267.05 327.81 267.88 328.16 269.05 328.71C271.61 329.91 275.84 332.06 276.91 333.71C280.48 339.09 279.1 350.52 277 359.33Z" stroke="#263238" stroke-linecap="round" stroke-linejoin="round"/>
<path d="M255.58 326.89C258.29 329.01 262.05 331.71 262.87 335.59C263.69 339.47 259.73 356.72 256.87 369.27" stroke="#263238" stroke-linecap="round" stroke-linejoin="round"/>
<path d="M236.07 363.33C237.07 358 233.37 351.69 232.9 351.33C232.43 350.97 232.19 347.33 233.84 344.75" stroke="#263238" stroke-linecap="round" stroke-linejoin="round"/>
<path d="M228.43 350.63C228.43 350.63 228.9 355.92 229.96 357.22C231.02 358.52 235.46 359.29 235.46 359.29" stroke="#263238" stroke-linecap="round" stroke-linejoin="round"/>
<path d="M236.07 328.47C236.07 328.47 230.55 333.59 230.55 335" stroke="#263238" stroke-linecap="round" stroke-linejoin="round"/>
<path d="M264.05 329.71C262.88 330.136 261.82 330.819 260.95 331.71" stroke="#263238" stroke-linecap="round" stroke-linejoin="round"/>
<path d="M265.11 379.2C263.34 376.73 259.79 356.27 259.79 356.27" stroke="#263238" stroke-linecap="round" stroke-linejoin="round"/>
<path d="M270.63 400.94C268.16 399.65 258.29 404 258.29 404" stroke="#263238" stroke-linecap="round" stroke-linejoin="round"/>
<path d="M247.72 394.71C247.72 394.71 240.42 398.71 239.13 398.47C237.84 398.23 236.07 394.71 236.07 394.71" stroke="#263238" stroke-linecap="round" stroke-linejoin="round"/>
<path d="M244.71 423.19H228.71C224.71 423.19 219.59 426.31 217.18 430.19C216.05 432 216.64 433.47 218.51 433.47H242.06C243.153 433.366 244.209 433.017 245.149 432.449C246.089 431.881 246.889 431.109 247.49 430.19C249.92 426.31 248.66 423.19 244.71 423.19Z" fill="#263238"/>
<path d="M280.05 423.19H264.05C260.05 423.19 254.93 426.31 252.53 430.19C251.39 432 251.98 433.47 253.85 433.47H277.4C278.495 433.366 279.552 433.018 280.494 432.45C281.435 431.882 282.237 431.11 282.84 430.19C285.26 426.31 284 423.19 280.05 423.19Z" fill="#263238"/>
<path d="M185.68 318.38C187.75 325.1 193.6 324.66 193.6 324.66L204.72 316.66C204.72 316.66 203.85 312.4 197.85 310.66" fill="white"/>
<path d="M185.68 318.38C187.75 325.1 193.6 324.66 193.6 324.66L204.72 316.66C204.72 316.66 203.85 312.4 197.85 310.66" stroke="#263238" stroke-linecap="round" stroke-linejoin="round"/>
<path d="M195.87 317.26C198.82 315.26 203.87 315.98 203.87 315.98C205.45 315.8 207.7 314.91 208.87 315.98C210.04 317.05 210.46 317.92 212.2 320.39C213.94 322.86 210.26 327.87 210.26 327.87C210.26 327.87 207.8 328.93 208.12 327.07C208.12 327.07 207.29 330.25 204.77 328.67C204.77 328.67 203.89 329.67 202.3 328.67C202.081 328.877 201.819 329.032 201.532 329.123C201.246 329.215 200.942 329.24 200.644 329.198C200.346 329.156 200.061 329.047 199.811 328.879C199.561 328.711 199.352 328.49 199.2 328.23L199.11 326.43C199.11 326.43 191.72 326.87 192.69 320.74" fill="white"/>
<path d="M195.87 317.26C198.82 315.26 203.87 315.98 203.87 315.98C205.45 315.8 207.7 314.91 208.87 315.98C210.04 317.05 210.46 317.92 212.2 320.39C213.94 322.86 210.26 327.87 210.26 327.87C210.26 327.87 207.8 328.93 208.12 327.07C208.12 327.07 207.29 330.25 204.77 328.67C204.77 328.67 203.89 329.67 202.3 328.67C202.081 328.877 201.819 329.032 201.532 329.123C201.246 329.215 200.942 329.24 200.644 329.198C200.346 329.156 200.061 329.047 199.811 328.879C199.561 328.711 199.352 328.49 199.2 328.23L199.11 326.43C199.11 326.43 191.72 326.87 192.69 320.74" stroke="#263238" stroke-linecap="round" stroke-linejoin="round"/>
<path d="M208.08 327.07C208.08 327.07 208.82 325.15 209.39 323.86C209.96 322.57 208.08 319.09 208.08 319.09" stroke="#263238" stroke-linecap="round" stroke-linejoin="round"/>
<path d="M204.73 328.67C204.62 328.31 205.73 323.84 205.57 323.08C205.1 322.046 204.524 321.064 203.85 320.15" stroke="#263238" stroke-linecap="round" stroke-linejoin="round"/>
<path d="M200.85 321.56C201.2 322.27 202.32 323.88 202.26 324.75C202.2 325.62 201.85 328.26 202.26 328.67" stroke="#263238" stroke-linecap="round" stroke-linejoin="round"/>
<path d="M199 327.87C198.964 327.137 199.008 326.403 199.13 325.68C198.508 325.197 198.05 324.533 197.82 323.78" stroke="#263238" stroke-linecap="round" stroke-linejoin="round"/>
<path d="M135.76 382.72C133.653 391.081 132.109 399.573 131.14 408.14C129.55 421.29 129.22 431.86 129.22 431.86L121.1 435.53C121.1 435.53 119.04 419.04 119.1 408.53C119.1 407.8 119.1 407.1 119.1 406.43C119.401 399.646 120.271 392.899 121.7 386.26L123.06 356.57L123.16 354.44L133.46 353.66L133.62 355.72L135.76 382.72Z" fill="white" stroke="#263238" stroke-linecap="round" stroke-linejoin="round"/>
<path d="M135.76 382.72C133.653 391.08 132.109 399.573 131.14 408.14C127.141 407.257 122.985 407.387 119.05 408.52C119.05 407.79 119.05 407.09 119.05 406.42C119.351 399.636 120.221 392.889 121.65 386.25L123.01 356.56L133.57 355.71L135.76 382.72Z" fill="#263238"/>
<path d="M173 431.82L165.83 437.1C165.83 437.1 161.94 425.95 159.41 416.28C158.73 413.69 158.15 411.2 157.77 409.06C156.613 402.368 156.02 395.591 156 388.8L154 372.05L163.9 369.13L169.11 382.4C168.792 391.193 169.076 399.996 169.96 408.75C171.11 421.69 173 431.82 173 431.82Z" fill="white" stroke="#263238" stroke-linecap="round" stroke-linejoin="round"/>
<path d="M169.91 408.75C166.657 411.611 163.122 414.134 159.36 416.28C158.68 413.69 158.1 411.2 157.72 409.06C156.579 402.367 156.004 395.59 156 388.8L154 372.05L163.9 369.13L169.11 382.4C168.776 391.191 169.043 399.995 169.91 408.75V408.75Z" fill="#263238"/>
<path d="M168.13 143.84C168.13 143.84 168.95 146.49 167.43 157.91L175.33 153.16C175.33 148.75 175.33 145.04 175.71 144.26C176.57 142.32 176.52 133.56 176.08 132.26C175.978 131.898 175.786 131.569 175.522 131.301C175.258 131.034 174.93 130.837 174.57 130.73C174.57 130.73 171.75 129.66 170.95 129.24C169.952 128.884 168.914 128.649 167.86 128.54L165.41 131.15L165.58 132.81C165.58 132.81 163.21 133.22 163.34 134.56C163.351 136.128 163.508 137.691 163.81 139.23C164.3 141 168.13 143.84 168.13 143.84Z" fill="white" stroke="#263238" stroke-linecap="round" stroke-linejoin="round"/>
<path d="M165.58 132.8C166.688 133.324 167.835 133.762 169.01 134.11C169.43 134.06 169.38 135.66 168.76 135.88C168.14 136.1 166.45 136.88 166.45 136.88C166.45 136.88 168.45 136.88 168.93 139.65" stroke="#263238" stroke-linecap="round" stroke-linejoin="round"/>
<path d="M167 133.4C167.371 132.769 167.775 132.158 168.21 131.57C168.728 131.087 169.276 130.636 169.85 130.22" stroke="#263238" stroke-linecap="round" stroke-linejoin="round"/>
<path d="M167.69 136.33C167.82 137.46 169.56 138.18 169.98 137.42C169.98 137.42 170.98 138.27 171.62 138.21C172.234 138.021 172.88 137.957 173.52 138.02C174.46 138.16 174.88 136.02 174.7 135.62C174.52 135.22 173.78 135.71 173.78 135.71" stroke="#263238" stroke-linecap="round" stroke-linejoin="round"/>
<path d="M172.61 138C171.916 137.074 171.525 135.957 171.49 134.8C171.982 133.793 172.604 132.855 173.34 132.01" stroke="#263238" stroke-linecap="round" stroke-linejoin="round"/>
<path d="M170 137.42C170 137.42 169.64 135.79 169.33 134.95" stroke="#263238" stroke-linecap="round" stroke-linejoin="round"/>
<path d="M169 134.11C169 134.11 170.34 131.59 171.06 131.2" stroke="#263238" stroke-linecap="round" stroke-linejoin="round"/>
<path d="M168.13 143.84C168.391 144.052 168.703 144.191 169.035 144.244C169.367 144.297 169.706 144.261 170.02 144.14" stroke="#263238" stroke-linecap="round" stroke-linejoin="round"/>
<path d="M172.13 145.1L173.6 145.47" stroke="#263238" stroke-linecap="round" stroke-linejoin="round"/>
<path d="M92.5901 319.58C92.8601 320.3 96.8101 345.09 93.6501 349.84C90.4901 354.59 90.0801 322.61 90.0801 322.61" stroke="#263238" stroke-width="2" stroke-miterlimit="10"/>
<path d="M84.68 321.34L43.27 454.76H45.12L87.85 324.81L84.68 321.34Z" fill="#757575" stroke="#263238" stroke-linecap="round" stroke-linejoin="round"/>
<path d="M113.88 182C113.88 182 106.16 180.51 104.05 188.31C101.94 196.11 105.64 216.31 104.05 220.73C102.46 225.15 104.77 231.16 108.63 230.51C108.63 230.51 106.76 229.12 108.05 226.33C109.34 223.54 112.23 217.87 111.97 213.45C111.97 213.45 112.97 221.78 110.38 225.57C110.38 225.57 116 216.28 115 207.82C114 199.36 113.88 182 113.88 182Z" fill="#263238"/>
<path d="M135.19 183.14C135.19 183.14 133.66 175.75 123.19 176.7C112.72 177.65 105.19 185.92 109.08 198.4C112.97 210.88 121.56 215.59 127.98 212.58C134.4 209.57 137.08 212.4 140.07 207.22C143.06 202.04 140.75 187.56 135.19 183.14Z" fill="#263238"/>
<path d="M176 191.86C176 191.98 173.8 196.76 170.74 203.32C167.1 211.15 162.21 221.5 158.21 229.54C154.81 236.39 152.06 241.54 151.3 242L153.68 206.41C158.071 200.109 161.589 193.244 164.14 186C165.46 181.86 167.43 150.53 167.43 150.53C171.07 151.71 176.05 150.53 176.05 150.53C176.05 150.53 177 186.07 176 191.86Z" fill="#04D361"/>
<path opacity="0.2" d="M170.7 203.32C167.06 211.15 162.17 221.5 158.17 229.54C157.42 228.45 156.95 227.73 156.95 227.73C156.95 227.73 160.95 216.85 160.51 210.73C160.07 204.61 163.87 208.16 162.09 215.47C162.09 215.46 166.82 208.37 170.7 203.32Z" fill="black" fill-opacity="0.7"/>
<path d="M176 191.86C176 191.98 173.8 196.76 170.74 203.32C167.1 211.15 162.21 221.5 158.21 229.54C154.81 236.39 152.06 241.54 151.3 242L153.68 206.41C158.071 200.109 161.589 193.244 164.14 186C165.46 181.86 167.43 150.53 167.43 150.53C171.07 151.71 176.05 150.53 176.05 150.53C176.05 150.53 177 186.07 176 191.86Z" stroke="#263238" stroke-linecap="round" stroke-linejoin="round"/>
<path d="M163.25 431.29C163.25 431.29 166.53 428.61 174 429.14C174 429.14 175.57 438.47 176.89 441.14C178.21 443.81 184.03 448.55 185.11 449.36C186.19 450.17 186.5 453 186.5 453H164C163.837 448.994 163.99 444.982 164.46 441L163.25 431.29Z" fill="white"/>
<path opacity="0.4" d="M163.25 431.29C163.25 431.29 166.53 428.61 174 429.14C174 429.14 175.57 438.47 176.89 441.14C178.21 443.81 184.03 448.55 185.11 449.36C186.19 450.17 186.5 453 186.5 453H164C163.837 448.994 163.99 444.982 164.46 441L163.25 431.29Z" fill="#04D361"/>
<path d="M163.25 431.29C163.25 431.29 166.53 428.61 174 429.14C174 429.14 175.57 438.47 176.89 441.14C178.21 443.81 184.03 448.55 185.11 449.36C186.19 450.17 186.5 453 186.5 453H164C163.837 448.994 163.99 444.982 164.46 441L163.25 431.29Z" stroke="#263238" stroke-linecap="round" stroke-linejoin="round"/>
<path d="M168 432.5C168 432.5 169.49 441.08 171 443.31C171.818 444.556 172.785 445.698 173.88 446.71C173.88 446.71 175.42 446.71 174.12 448.88" stroke="#263238" stroke-linecap="round" stroke-linejoin="round"/>
<path d="M172.1 445.91C172.1 445.91 176.57 443.02 180.23 445.2" stroke="#263238" stroke-linecap="round" stroke-linejoin="round"/>
<path d="M170.72 443.94C171.706 443.134 172.883 442.597 174.138 442.382C175.393 442.166 176.682 442.279 177.88 442.71" stroke="#263238" stroke-linecap="round" stroke-linejoin="round"/>
<path d="M169 441C169.996 440.165 171.204 439.624 172.49 439.437C173.775 439.249 175.088 439.424 176.28 439.94" stroke="#263238" stroke-linecap="round" stroke-linejoin="round"/>
<path d="M168.06 437.22C168.06 437.22 172.16 434.75 175.55 436.62" stroke="#263238" stroke-linecap="round" stroke-linejoin="round"/>
<path d="M164 453L164.2 454.74H166.78C167.435 454.355 168.18 454.152 168.94 454.152C169.7 454.152 170.445 454.355 171.1 454.74H183.24C184.492 454.742 185.727 454.444 186.84 453.87L186.49 453H164Z" fill="#04D361" stroke="#263238" stroke-linecap="round" stroke-linejoin="round"/>
<path d="M119.46 432.4C119.46 432.4 123.03 429.85 130.46 430.4C130.46 430.4 131 439.28 132.01 441.87C133.02 444.46 138.33 448.92 139.31 449.69C140.29 450.46 140.31 453.14 140.31 453.14H117.8C118.084 449.295 118.679 445.479 119.58 441.73L119.46 432.4Z" fill="white"/>
<path opacity="0.4" d="M119.46 432.4C119.46 432.4 123.03 429.85 130.46 430.4C130.46 430.4 131 439.28 132.01 441.87C133.02 444.46 138.33 448.92 139.31 449.69C140.29 450.46 140.31 453.14 140.31 453.14H117.8C118.084 449.295 118.679 445.479 119.58 441.73L119.46 432.4Z" fill="#04D361"/>
<path d="M119.46 432.4C119.46 432.4 123.03 429.85 130.46 430.4C130.46 430.4 131 439.28 132.01 441.87C133.02 444.46 138.33 448.92 139.31 449.69C140.29 450.46 140.31 453.14 140.31 453.14H117.8C118.084 449.295 118.679 445.479 119.58 441.73L119.46 432.4Z" stroke="#263238" stroke-linecap="round" stroke-linejoin="round"/>
<path d="M124.1 433.55C124.1 433.55 124.63 441.73 125.9 443.86C126.576 445.047 127.414 446.135 128.39 447.09C128.39 447.09 129.93 447.09 128.39 449.16" stroke="#263238" stroke-linecap="round" stroke-linejoin="round"/>
<path d="M126.67 446.33C126.67 446.33 131.47 443.57 134.88 445.65" stroke="#263238" stroke-linecap="round" stroke-linejoin="round"/>
<path d="M125.52 444.46C126.556 443.703 127.757 443.201 129.024 442.996C130.29 442.791 131.588 442.888 132.81 443.28" stroke="#263238" stroke-linecap="round" stroke-linejoin="round"/>
<path d="M124.1 441.61C124.1 441.61 127.7 438.81 131.5 440.61" stroke="#263238" stroke-linecap="round" stroke-linejoin="round"/>
<path d="M123.61 438.05C123.61 438.05 127.98 435.7 131.16 437.48" stroke="#263238" stroke-linecap="round" stroke-linejoin="round"/>
<path d="M117.8 453.1V454.76H120.37C121.033 454.4 121.775 454.211 122.53 454.211C123.285 454.211 124.027 454.4 124.69 454.76H136.83C138.112 454.755 139.378 454.472 140.54 453.93L140.28 453.1H117.8Z" fill="#04D361" stroke="#263238" stroke-linecap="round" stroke-linejoin="round"/>
<path d="M162.51 268.86C162.51 268.86 169.6 297.08 178.81 401.46C178.81 401.46 147.95 410.53 113.55 404.05C113.55 404.05 116.07 398.29 116.55 371.17C117.03 344.05 115 299.7 130.05 277.79L162.51 268.86Z" fill="#757575" stroke="#263238" stroke-linecap="round" stroke-linejoin="round"/>
<path d="M163.69 268.51C164.09 271.31 143.98 281.51 132.69 281.34C131.445 281.353 130.206 281.168 129.02 280.79C126.35 279.87 127.62 268.58 127.62 268.58C127.62 268.58 120.3 259.27 114.51 251.19C110.95 246.19 107.97 241.7 107.63 240.1C107.09 237.57 115.27 230.1 121.77 225.89C143.32 212.03 153.61 206.41 153.61 206.41C153.61 206.41 155.93 208.95 156.92 214.41L157.92 222.85C159.64 229.85 161.3 237.18 161.67 241.06C162.51 249.72 160.49 259.89 160.49 259.89C160.49 259.89 163.25 265.38 163.69 268.51Z" fill="#04D361"/>
<path opacity="0.2" d="M132.72 281.34C131.475 281.353 130.236 281.168 129.05 280.79C126.38 279.87 127.65 268.58 127.65 268.58C127.65 268.58 120.33 259.27 114.54 251.19L115.12 249.84C115.12 249.84 119.35 250.67 123.21 256.61C127.07 262.55 127.53 266.48 130.61 266.48C136.77 266.48 149.56 240.38 144.47 259.15C141.41 270.45 131.41 270.65 131.41 270.65C131.41 270.65 141.89 273.82 144.47 273.82C146.34 273.82 139.83 280.08 132.72 281.34Z" fill="black" fill-opacity="0.7"/>
<path d="M163.69 268.51C164.09 271.31 143.98 281.51 132.69 281.34C131.445 281.353 130.206 281.168 129.02 280.79C126.35 279.87 127.62 268.58 127.62 268.58C127.62 268.58 120.3 259.27 114.51 251.19C110.95 246.19 107.97 241.7 107.63 240.1C107.09 237.57 115.27 230.1 121.77 225.89C143.32 212.03 153.61 206.41 153.61 206.41C153.61 206.41 155.93 208.95 156.92 214.41L157.92 222.85C159.64 229.85 161.3 237.18 161.67 241.06C162.51 249.72 160.49 259.89 160.49 259.89C160.49 259.89 163.25 265.38 163.69 268.51Z" stroke="#263238" stroke-linecap="round" stroke-linejoin="round"/>
<path d="M107.66 240.1C104.32 251.24 103.15 268.59 102.89 273.16C102.63 277.73 93.0001 304 92.1901 306.24C91.3801 308.48 90.0801 312.3 90.0801 312.3L96.1501 316.87C96.1501 316.87 110.07 285.93 111.1 282.87C112.13 279.81 118 256.5 118 256.5C118 256.5 117.47 244.96 115 242.69" fill="#04D361"/>
<path d="M107.66 240.1C104.32 251.24 103.15 268.59 102.89 273.16C102.63 277.73 93.0001 304 92.1901 306.24C91.3801 308.48 90.0801 312.3 90.0801 312.3L96.1501 316.87C96.1501 316.87 110.07 285.93 111.1 282.87C112.13 279.81 118 256.5 118 256.5C118 256.5 117.47 244.96 115 242.69" stroke="#263238" stroke-linecap="round" stroke-linejoin="round"/>
<path d="M90.0801 312.3C90.0801 312.3 84.7301 315.58 83.2601 316.74C81.7901 317.9 82.0001 323.57 82.0001 323.57C82.0001 323.57 79.0001 326.43 82.4801 328.5C83.7179 327.28 85.0304 326.137 86.4101 325.08C87.8701 324.81 86.3401 329.46 86.3401 329.46C86.6801 330.65 93.5701 325.46 94.3401 324.65C95.1101 323.84 96.1501 316.87 96.1501 316.87C96.1501 316.87 94.0001 312.17 90.0801 312.3Z" fill="white" stroke="#263238" stroke-linecap="round" stroke-linejoin="round"/>
<path d="M84.55 323.47C84.1823 323.177 83.891 322.799 83.7012 322.369C83.5114 321.939 83.4286 321.469 83.46 321C83.56 320.24 82.37 318.55 82.37 318.55" fill="white"/>
<path d="M84.55 323.47C84.1823 323.177 83.891 322.799 83.7012 322.369C83.5114 321.939 83.4286 321.469 83.46 321C83.56 320.24 82.37 318.55 82.37 318.55" stroke="#263238" stroke-linecap="round" stroke-linejoin="round"/>
<path d="M86.39 325.08C88.7 324.85 88.9 325.74 88.9 325.74Z" fill="white"/>
<path d="M86.39 325.08C88.7 324.85 88.9 325.74 88.9 325.74" stroke="#263238" stroke-linecap="round" stroke-linejoin="round"/>
<path d="M164.63 183.5C164.63 183.5 170.79 182.85 170.79 188.38" stroke="#263238" stroke-linecap="round" stroke-linejoin="round"/>
<path d="M102.61 274.84C102.61 274.84 104.61 281.32 107.61 279.74" stroke="#263238" stroke-linecap="round" stroke-linejoin="round"/>
<path d="M160.51 259.86C160.51 259.86 157.74 271.25 148.44 272.24" stroke="#263238" stroke-linecap="round" stroke-linejoin="round"/>
<path d="M123.21 230.57C123.21 230.57 139.54 233.09 142.31 227.74" stroke="#263238" stroke-linecap="round" stroke-linejoin="round"/>
<path d="M152.59 247C152.59 247 145.59 246 140.09 257.42" stroke="#263238" stroke-linecap="round" stroke-linejoin="round"/>
<path d="M160.51 298.92C160.51 298.92 137.75 333.52 133.3 361.92" stroke="#263238" stroke-linecap="round" stroke-linejoin="round"/>
<path d="M164 375C164 375 161.3 388 135.18 392.75" stroke="#263238" stroke-linecap="round" stroke-linejoin="round"/>
<path d="M140.55 215.7C140.55 215.7 138.55 230.52 120.68 227.27C120.68 227.27 124.63 224.1 125.02 222.22C125.41 220.34 120.69 204.87 120.69 204.87L130.83 208.33L134.43 209.56C134.43 209.56 133.78 214.38 135.51 216.38C135.648 216.53 135.798 216.667 135.96 216.79C136.86 217.44 140.55 215.7 140.55 215.7Z" fill="white" stroke="#263238" stroke-linecap="round" stroke-linejoin="round"/>
<path d="M135.51 216.38C129.86 218.5 123.21 209.13 123.21 209.13C125.731 208.708 128.276 208.441 130.83 208.33L134.43 209.56C134.43 209.56 133.78 214.38 135.51 216.38Z" fill="#263238"/>
<path d="M123.7 179.62C137.77 176.09 139.45 198.27 140.08 203.69C140.32 205.69 136.91 213.27 134.22 213.82C132.11 214.25 122.74 211.26 121.38 208.98C117.77 202.91 107.87 183.59 123.7 179.62Z" fill="white" stroke="#263238" stroke-linecap="round" stroke-linejoin="round"/>
<path d="M131.41 193.11C131.79 194.03 132.11 196.96 134.67 198.04C136.32 198.74 133.57 200.49 133.57 200.49" stroke="#263238" stroke-linecap="round" stroke-linejoin="round"/>
<path d="M130.32 188.77C131.2 188.418 132.148 188.272 133.093 188.343C134.037 188.414 134.953 188.7 135.77 189.18" stroke="#263238" stroke-linecap="round" stroke-linejoin="round"/>
<path d="M125.67 190.46C123.88 190.938 122.208 191.783 120.76 192.94" stroke="#263238" stroke-linecap="round" stroke-linejoin="round"/>
<path d="M135.42 194C135.495 194.235 135.481 194.49 135.379 194.716C135.278 194.941 135.096 195.12 134.87 195.22C134.45 195.3 134.01 194.9 133.87 194.32C133.73 193.74 134 193.19 134.42 193.11C134.84 193.03 135.3 193.4 135.42 194Z" fill="#263238"/>
<path d="M126.4 196.5C126.52 197.08 126.27 197.63 125.85 197.71C125.43 197.79 124.99 197.4 124.85 196.82C124.71 196.24 124.97 195.69 125.4 195.6C125.83 195.51 126.28 195.92 126.4 196.5Z" fill="#263238"/>
<path d="M135.06 204.09C132.714 204.5 130.307 204.405 128 203.81C128 203.81 128.87 207.42 132.06 207.21C134.51 207.04 134.56 204.21 134.56 204.21" stroke="#263238" stroke-linecap="round" stroke-linejoin="round"/>
<path d="M119.91 184.37C119.91 184.37 123.91 194.07 116.3 200.52L109.1 192.27L121.63 177.63C135.94 173.99 144.79 180.77 144.46 206.5C144.46 206.5 137.75 178.14 119.91 184.37Z" fill="#263238"/>
<path d="M118.36 200.32C118.12 199.17 114.36 197.22 114 199.32C113.37 202.97 115.43 205.32 117.46 205.83C118.37 206.06 119.62 206.65 120.02 205.59" fill="white"/>
<path d="M118.36 200.32C118.12 199.17 114.36 197.22 114 199.32C113.37 202.97 115.43 205.32 117.46 205.83C118.37 206.06 119.62 206.65 120.02 205.59" stroke="#263238" stroke-linecap="round" stroke-linejoin="round"/>
<path d="M116.93 198.13L121.6 194.54C121.6 194.54 125.23 192.03 128.13 192.69L130.83 192.29C131.618 191.787 132.464 191.38 133.35 191.08C134.41 190.9 136.29 190.42 137.23 191.36L138.42 191.81L138.53 193.58L137.53 193.72C137.53 193.72 137.67 196.72 135.77 197.09C133.67 197.52 131.59 194.58 131.59 194.58C131.59 194.58 129.81 194.51 129.59 195.34C129.59 195.34 130.14 198.46 127.23 199.18C124.32 199.9 122.01 196.34 122.01 196.34L117.22 199.13L116.93 198.13Z" fill="#263238"/>
</svg>
